<svg id="Background" xmlns="http://www.w3.org/2000/svg" viewBox="0 0 1101.07 821.47"><defs><style>.cls-1{fill:#f5f5f5;}.cls-2{fill:#afafaf;}.cls-3{fill:#fff;}.cls-4{fill:#e0e0e0;}.cls-5{fill:#ededed;}.cls-6{fill:#f7f7f7;}.cls-7{fill:#eee;}.cls-8{fill:#b9b9b9;}</style></defs><polygon class="cls-1" points="283.59 281.15 283.59 371.56 505.45 473.33 505.45 581.31 878.92 742.18 1090.67 742.18 1090.67 189.64 293.84 189.64 283.59 281.15"/><polygon class="cls-2" points="1101.07 679.85 1077.53 696.6 1077.53 384.42 1101.07 367.67 1101.07 374.06 1101.07 379.11 1101.07 382.89 1101.07 390.77 1101.07 396.26 1101.07 410.7 1101.07 414.11 1101.07 635.73 1101.07 679.85"/><polygon class="cls-3" points="1077.53 384.42 1075.02 383.21 1078.36 380.8 1083.46 377.1 1087 374.55 1088.72 373.3 1092.57 370.51 1088.72 368.8 1094.4 364.68 1101.07 367.67 1077.53 384.42"/><polygon class="cls-4" points="1075.02 695.4 1075.02 410.51 1075.02 383.21 1077.53 384.42 1077.53 696.6 1075.02 695.4"/><polygon class="cls-3" points="1019.13 326.25 1053.7 350.84 1087 374.55 1083.46 377.1 1015.53 328.75 1019.13 326.25"/><polygon class="cls-4" points="1015.53 328.75 1083.46 377.1 1078.36 380.8 1015.53 335.82 1015.53 328.75"/><polygon class="cls-4" points="900.17 319.28 900.17 245.74 900.17 193.65 900.17 183.77 964.76 212.58 964.76 316.26 940.54 311.81 936.58 310.05 921.31 320.57 909.07 315.11 907.26 314.32 900.17 319.28"/><polygon class="cls-2" points="921.65 419.78 924.27 417.98 952.75 398.19 952.75 403.93 952.75 409.68 921.65 431.58 921.65 419.78"/><polygon class="cls-2" points="932.01 380.41 924.8 379.69 924.8 367.92 947.93 351.44 947.93 373.94 935.1 383.05 932.01 380.41"/><polygon class="cls-1" points="924.8 367.92 905.11 358.7 928.24 342.22 936.58 346.13 947.93 351.44 924.8 367.92"/><polygon class="cls-4" points="936.9 322.87 936.9 314.34 936.9 314.32 936.93 314.32 991.34 324.33 1015.53 328.75 1015.53 335.82 936.9 322.87"/><polygon class="cls-3" points="991.34 324.33 936.93 314.32 940.54 311.81 964.76 316.26 991.34 321.15 996.04 322.01 1019.13 326.25 1015.53 328.75 991.34 324.33"/><polygon class="cls-5" points="905.11 381.11 898.83 378.25 902.56 375.57 902.56 358.19 892.5 353.62 936.9 322.87 1015.53 335.82 940.89 388.01 935.1 383.05 947.93 373.94 947.93 351.44 936.58 346.13 928.24 342.22 905.11 358.7 905.11 381.11"/><polygon class="cls-1" points="921.65 419.78 905.25 406.62 913.1 400.9 913.1 393.99 931.43 380.85 932.01 380.41 935.1 383.05 940.89 388.01 952.75 398.19 924.27 417.98 921.65 419.78"/><polygon class="cls-4" points="921.65 431.58 905.25 420.15 905.25 406.62 921.65 419.78 921.65 431.58"/><polygon class="cls-5" points="911.27 378.32 924.8 379.69 932.01 380.41 931.43 380.85 913.1 393.99 913.1 384.74 906.45 381.73 911.27 378.32"/><polygon class="cls-4" points="924.8 379.69 911.27 378.32 906.45 381.73 905.11 381.11 905.11 358.7 924.8 367.92 924.8 379.69"/><polygon class="cls-1" points="896.07 523.56 870.76 467.45 900.17 446.71 901.86 445.53 901.86 439.53 901.86 433.53 894.75 427.92 905.25 420.15 921.65 431.58 952.75 409.68 952.75 403.93 952.75 398.19 940.89 388.01 1015.53 335.82 1078.36 380.8 1075.02 383.21 1075.02 410.51 900.91 534.31 900.91 525.78 896.07 523.56"/><polygon class="cls-2" points="889.12 373.83 889.12 368.04 902.56 358.19 902.56 375.57 898.83 378.25 889.12 373.83"/><polygon class="cls-2" points="870.76 455.15 901.86 433.53 901.86 439.53 901.86 445.53 900.17 446.71 870.76 467.45 870.76 455.15"/><polygon class="cls-2" points="900.91 525.78 900.91 534.31 1075.02 410.51 1075.02 695.4 897.76 821.47 897.76 528.03 900.91 525.78"/><polygon class="cls-5" points="884.99 304.24 842.49 281.99 872.08 263.38 882.19 257.03 900.17 245.74 900.17 319.28 881.82 332.14 858.04 320.99 884.99 304.24"/><polygon class="cls-5" points="882.19 257.03 820.71 223.63 820.71 214.78 809.54 208.29 828.35 201.22 879.06 182.18 900.17 193.65 900.17 245.74 882.19 257.03"/><polygon class="cls-1" points="913.1 384.74 880.73 407.08 875.14 375.66 913.1 384.74"/><polygon class="cls-2" points="885.06 350.24 936.9 314.34 936.9 322.87 892.5 353.62 885.06 350.24"/><polygon class="cls-3" points="881 348.38 892.62 340.37 921.31 320.57 936.58 310.05 940.54 311.81 936.93 314.32 936.9 314.32 936.9 314.34 885.06 350.24 881 348.38"/><polygon class="cls-2" points="894.75 427.92 885.76 420.85 880.73 424.54 880.73 407.08 913.1 384.74 913.1 393.99 913.1 400.9 905.25 406.62 905.25 420.15 894.75 427.92"/><polygon class="cls-5" points="881.82 332.14 900.17 319.28 907.26 314.32 909.07 315.11 921.31 320.57 892.62 340.37 892.62 340.34 878.92 334.18 881.82 332.14"/><polygon class="cls-1" points="849.81 437.17 874.56 419.41 880.73 424.54 885.76 420.85 894.75 427.92 901.86 433.53 870.76 455.15 849.81 437.17"/><polygon class="cls-4" points="892.62 340.37 881 348.38 880.98 348.38 878.92 347.43 878.92 338.67 878.92 334.8 878.92 334.18 892.62 340.34 892.62 340.37"/><polygon class="cls-4" points="878.92 334.8 858.04 325.44 858.04 325.42 858.04 320.99 881.82 332.14 878.92 334.18 878.92 334.8"/><polygon class="cls-4" points="861.96 418.56 861.96 398.88 880.73 407.08 880.73 424.54 874.56 419.41 861.96 418.56"/><polygon class="cls-4" points="889.12 373.83 864.81 362.77 864.81 356.98 889.12 368.04 889.12 373.83"/><polygon class="cls-5" points="880.73 407.08 861.96 398.88 858.2 367.87 875.14 375.66 880.73 407.08"/><polygon class="cls-5" points="859.94 360.55 864.81 362.77 889.12 373.83 898.83 378.25 905.11 381.11 906.45 381.73 913.1 384.74 875.14 375.66 858.2 367.87 856.9 359.18 859.94 360.55"/><polygon class="cls-1" points="861.96 398.88 849.02 409.43 843.14 378.28 858.2 367.87 861.96 398.88"/><polygon class="cls-1" points="857.99 355.96 863.74 351.74 868.1 353.71 870.11 354.64 873.66 352.05 868.1 349.5 871.34 347.11 873.98 345.19 878.92 347.43 880.98 348.38 881 348.38 885.06 350.24 892.5 353.62 902.56 358.19 889.12 368.04 864.81 356.98 859.94 360.55 856.9 359.18 851.25 363.29 849.23 362.38 857.99 355.96"/><polygon class="cls-2" points="849.02 427.94 849.02 409.43 861.96 398.88 861.96 418.56 849.02 427.94"/><polygon class="cls-5" points="849.81 437.17 829.3 435.57 840.87 427.38 849.02 427.94 861.96 418.56 874.56 419.41 849.81 437.17"/><polygon class="cls-4" points="849.81 437.17 870.76 455.15 870.76 467.45 859.08 461.87 849.81 457.42 849.81 437.17"/><polygon class="cls-4" points="829.3 447.62 829.3 437.58 829.3 435.57 849.81 437.17 849.81 457.42 829.3 447.62"/><polygon class="cls-4" points="842.49 318.44 842.49 285.14 842.49 281.99 884.99 304.24 858.04 320.99 858.04 325.42 842.49 318.44"/><polygon class="cls-5" points="842.49 285.14 812.59 268.48 820.71 263.77 820.71 235.45 872.08 263.38 842.49 281.99 842.49 285.14"/><polygon class="cls-5" points="833.2 376.36 822.7 371.58 831.67 365 842.3 369.75 833.2 376.36"/><polygon class="cls-5" points="826.75 399.32 811.23 392.25 843.14 378.28 849.02 409.43 826.75 399.32"/><polygon class="cls-2" points="827.26 311.61 798.16 298.54 827.24 277.65 827.26 277.65 827.26 310.61 827.26 311.61"/><polygon class="cls-4" points="822.7 371.58 833.2 376.36 822.7 383.96 822.7 379.48 822.7 371.58"/><polygon class="cls-5" points="843.14 378.28 811.23 392.25 822.7 383.96 833.2 376.36 842.3 369.75 849.23 364.75 851.25 363.29 856.9 359.18 858.2 367.87 843.14 378.28"/><polygon class="cls-4" points="820.71 235.45 820.71 223.63 882.19 257.03 872.08 263.38 820.71 235.45"/><polygon class="cls-2" points="804.95 237.15 792.78 230.96 812.83 219.35 820.71 214.78 820.71 223.63 820.71 235.45 820.71 263.77 812.59 268.48 812.59 269.94 804.95 265.93 804.95 237.15"/><polygon class="cls-4" points="811.23 392.25 826.75 399.32 849.02 409.43 849.02 427.94 840.87 427.38 829.3 435.57 829.3 437.58 811.23 434.59 811.23 420.43 811.23 392.25"/><polygon class="cls-4" points="812.59 268.48 842.49 285.14 842.49 318.44 836.49 315.75 836.42 315.71 827.26 310.61 827.26 277.65 827.24 277.65 812.59 269.94 812.59 268.48"/><polygon class="cls-5" points="752.43 232.3 738.48 224.82 763.7 210.01 770.79 205.86 787.96 195.78 793.43 198.95 801.31 203.52 809.54 208.29 820.71 214.78 812.83 219.35 792.78 230.96 804.95 237.15 792.8 244.19 759.36 227.83 752.43 232.3"/><polygon class="cls-2" points="792.8 259.53 792.8 244.19 804.95 237.15 804.95 265.93 792.8 259.53"/><polygon class="cls-2" points="811.23 434.59 801.31 441.71 801.31 437.68 801.31 427.62 811.23 420.43 811.23 434.59"/><polygon class="cls-1" points="801.31 427.62 772.9 413.97 793.89 399.41 822.7 379.48 822.7 383.96 811.23 392.25 811.23 420.43 801.31 427.62"/><polygon class="cls-4" points="793.89 300.41 878.92 338.67 878.92 347.43 873.98 345.19 871.34 347.11 793.89 311.77 793.89 301.59 793.89 300.41"/><polygon class="cls-5" points="798.16 298.54 827.26 311.61 836.42 315.71 836.49 315.75 842.49 318.44 858.04 325.42 858.04 325.44 878.92 334.8 878.92 338.67 793.89 300.41 797.14 298.07 798.16 298.54"/><polygon class="cls-1" points="709.93 427.52 677.21 401.62 789.79 317.68 810.51 334.57 831.76 351.88 857.99 355.96 849.23 362.38 849.23 364.75 842.3 369.75 831.67 365 822.7 371.58 822.7 379.48 793.89 399.41 793.89 397.35 749.72 376.1 715.84 400.87 709.93 404.95 709.93 427.52"/><polygon class="cls-2" points="752.87 436.63 752.87 425.62 793.89 397.35 793.89 399.41 772.9 413.97 772.9 422.84 752.87 436.63"/><polygon class="cls-5" points="790.21 299.95 816.39 281.15 820.77 278.02 827.24 277.65 798.16 298.54 797.14 298.07 793.89 300.41 793.89 301.59 792.78 301.11 790.21 299.95"/><polygon class="cls-4" points="772.9 413.97 801.31 427.62 801.31 437.68 801.31 441.71 772.9 436.45 772.9 427.92 772.9 422.84 772.9 413.97"/><polygon class="cls-2" points="746.38 454.82 738.97 451.42 770.23 429.77 772.9 427.92 772.9 436.45 746.38 454.8 746.38 454.82"/><polygon class="cls-4" points="770.32 256.19 770.32 251.51 820.77 278.02 816.39 281.15 770.32 256.19"/><polygon class="cls-5" points="790.21 310.1 736.67 285.67 770.32 256.19 816.39 281.15 790.21 299.95 790.21 310.1"/><polygon class="cls-4" points="768.79 248.69 759.36 244.07 759.36 227.83 792.8 244.19 792.8 259.53 770.23 247.67 768.79 248.69"/><polygon class="cls-5" points="753.31 457.98 829.3 447.62 849.81 457.42 859.08 461.87 870.76 467.45 896.07 523.56 753.31 458 753.31 457.98"/><polygon class="cls-4" points="709.93 438.63 709.93 429.82 709.93 427.52 709.93 404.95 752.87 425.62 752.87 436.63 734.66 449.19 709.93 438.63"/><polygon class="cls-4" points="752.43 232.3 752.43 248.55 738.48 257.56 738.48 241.85 738.48 224.82 752.43 232.3"/><polygon class="cls-5" points="746.38 454.8 772.9 436.45 801.31 441.71 811.23 434.59 829.3 437.58 829.3 447.62 753.31 457.98 753.31 458 746.38 454.82 746.38 454.8"/><polygon class="cls-5" points="770.23 314.92 747.31 311.68 736.67 285.67 790.21 310.1 793.89 311.77 871.34 347.11 868.1 349.5 868.1 353.71 863.74 351.74 857.99 355.96 831.76 351.88 810.51 334.57 789.79 317.68 770.23 314.92"/><polygon class="cls-3" points="828.65 495.94 731.99 451.02 734.66 449.19 752.87 436.63 772.9 422.84 772.9 427.92 770.23 429.77 738.97 451.42 746.38 454.82 753.31 458 896.07 523.56 900.91 525.78 897.76 528.03 828.65 495.94"/><polygon class="cls-5" points="688.84 270.63 643.33 218.56 727.47 170.38 734.47 178.03 753.82 199.21 763.7 210.01 738.48 224.82 738.48 241.85 728.22 247.81 688.84 270.63"/><polygon class="cls-2" points="688.84 270.63 728.22 247.81 728.22 264.19 699.6 282.68 688.84 277.91 688.84 270.63"/><polygon class="cls-2" points="725.95 475.59 725.95 742.26 722.79 744.53 722.79 477.86 725.95 475.59"/><polygon class="cls-4" points="714.15 740.54 706.27 736.9 706.27 733.17 706.27 470.24 714.15 473.87 722.79 477.86 722.79 744.53 714.15 740.54"/><polygon class="cls-4" points="720.99 472 723.07 467.43 723.07 460.39 723.07 456.33 731.99 460.39 731.99 453.39 731.99 451.02 828.65 495.94 897.76 528.03 897.76 821.47 725.95 742.26 725.95 475.59 727.08 474.78 720.99 472"/><polygon class="cls-1" points="752.87 425.62 709.93 404.95 715.84 400.87 749.72 376.1 793.89 397.35 752.87 425.62"/><polygon class="cls-2" points="706.13 448.61 712.18 444.26 712.18 455.36 706.13 459.71 706.13 448.61"/><polygon class="cls-2" points="736.67 285.67 703.95 309.89 703.95 299.49 770.32 251.51 770.32 256.19 736.67 285.67"/><polygon class="cls-5" points="770.32 251.51 703.95 299.49 700.5 297.95 706.73 293.46 709.51 291.47 710.93 290.45 768.79 248.69 770.23 247.67 792.8 259.53 804.95 265.93 812.59 269.94 827.24 277.65 820.77 278.02 770.32 251.51"/><polygon class="cls-4" points="700.5 309.5 700.5 306.76 700.5 297.95 703.95 299.49 703.95 309.89 700.5 309.5"/><polygon class="cls-4" points="700.5 287.23 709.51 291.44 709.51 291.47 706.73 293.46 700.5 290.54 700.5 287.23"/><polygon class="cls-4" points="700.5 290.54 706.73 293.46 700.5 297.95 700.5 290.54"/><polygon class="cls-4" points="709.51 291.44 700.5 287.23 700.5 285.56 710.93 290.45 709.51 291.47 709.51 291.44"/><polygon class="cls-2" points="700.5 309.5 638.37 356.36 638.37 315.29 700.5 283.08 700.5 285.56 700.5 287.23 700.5 290.54 700.5 297.95 700.5 306.76 700.5 309.5"/><polygon class="cls-5" points="710.93 290.45 700.5 285.56 700.5 283.08 699.6 282.68 728.22 264.19 738.48 257.56 752.43 248.55 759.36 244.07 768.79 248.69 710.93 290.45"/><polygon class="cls-4" points="677.21 416.61 677.21 401.62 709.93 427.52 709.93 429.82 677.21 416.61"/><polygon class="cls-4" points="677.21 416.61 622.86 394.66 677.21 401.62 677.21 416.61"/><polygon class="cls-2" points="675.17 452.18 675.17 718.85 671.67 721.31 671.67 454.64 675.17 452.18"/><polygon class="cls-2" points="663.42 266.62 654.43 262.64 663.42 256.5 663.42 266.62"/><polygon class="cls-2" points="662.63 421.41 662.63 432.53 656.21 437 656.21 425.9 662.63 421.41"/><polygon class="cls-4" points="663.42 717.39 654.17 713.01 654.17 709.16 654.17 446.34 663.42 450.72 671.67 454.64 671.67 721.31 663.42 717.39"/><polygon class="cls-2" points="646.32 709.51 646.32 442.84 649.75 440.34 649.75 707.01 649.65 707.08 646.32 709.51"/><polygon class="cls-4" points="643.33 232.63 643.33 218.56 688.84 270.63 688.84 277.91 663.42 266.62 663.42 256.5 643.33 232.63"/><polygon class="cls-4" points="645.32 432.04 645.32 424.54 645.32 420.94 656.21 425.9 656.21 437 663.42 440.27 672.9 444.58 672.9 437.26 672.9 433.48 706.13 448.61 706.13 459.71 715.49 463.98 715.54 464 723.07 467.43 720.99 472 710.46 467.2 706.27 470.24 706.27 733.17 675.17 718.85 675.17 452.18 657.39 444.09 654.17 446.34 654.17 709.16 649.65 707.08 649.75 707.01 649.75 440.34 645.34 438.32 642.98 437.23 645.34 432.04 645.32 432.04"/><polygon class="cls-4" points="631 217.96 643.33 218.56 643.33 232.63 631 217.96"/><polygon class="cls-5" points="633.76 408.1 610.72 397.47 622.86 394.66 677.21 416.61 709.93 429.82 709.93 438.63 734.66 449.19 731.99 451.02 731.99 453.39 729.03 452.02 723.07 456.33 723.07 460.39 712.18 455.36 712.18 444.26 679.09 429.01 672.9 433.48 672.9 437.26 662.63 432.53 662.63 421.41 651.46 416.26 645.32 420.94 645.32 424.54 633.76 419.2 633.76 408.1"/><polygon class="cls-2" points="633.76 408.1 633.76 419.2 627.36 423.84 627.36 412.74 633.76 408.1"/><polygon class="cls-5" points="610.47 242.43 594.36 235.41 625.78 211.77 631 217.96 643.33 232.63 663.42 256.5 654.43 262.64 618.62 246.74 610.47 250.98 610.47 242.43"/><polygon class="cls-5" points="593.64 400.71 584.93 396.68 638.37 356.38 638.37 356.36 700.5 309.5 703.95 309.89 736.67 285.67 747.31 311.68 770.23 314.92 789.79 317.68 677.21 401.62 622.86 394.66 610.72 397.47 600.06 392.58 593.64 397.19 593.64 400.71"/><polygon class="cls-4" points="593.64 414.59 575.96 406.44 575.96 400.15 593.64 408.31 593.64 414.59"/><polygon class="cls-2" points="582.38 395.52 582.38 384.58 575.61 381.48 575.61 375.64 638.37 315.29 638.37 356.36 638.37 356.38 584.93 396.68 582.38 395.52"/><polygon class="cls-2" points="582.38 384.58 582.38 395.52 575.96 400.15 575.96 389.22 582.38 384.58"/><polygon class="cls-2" points="610.47 251 577.6 268.11 576.31 267.55 610.47 242.43 610.47 250.98 610.47 251"/><polygon class="cls-2" points="573.43 266.3 558.81 259.93 558.81 231.61 597.6 248.5 573.43 266.3"/><polygon class="cls-4" points="597.6 248.5 558.81 231.61 558.81 222.52 605.34 242.8 597.6 248.5"/><polygon class="cls-5" points="594.36 235.41 562.52 221.53 588.22 201.13 595.42 201.73 607.34 202.73 597.81 208.92 607.34 209.89 608.94 210.05 625.78 211.77 594.36 235.41"/><polygon class="cls-5" points="562.52 221.53 594.36 235.41 610.47 242.43 576.31 267.55 573.43 266.3 597.6 248.5 605.34 242.8 558.81 222.52 558.81 219.9 561.27 220.97 562.52 221.53"/><polygon class="cls-5" points="531.42 268.57 542.24 263.01 553.09 257.42 558.81 259.93 573.43 266.3 576.31 267.55 577.6 268.11 610.47 251 610.47 250.98 618.62 246.74 654.43 262.64 663.42 266.62 688.84 277.91 699.6 282.68 700.5 283.08 638.37 315.29 531.42 268.57"/><polygon class="cls-2" points="657.02 358.93 657.02 114.48 657.02 92.81 664.55 87.37 664.55 251.42 664.55 362.36 664.55 362.38 657.02 358.93"/><polygon class="cls-2" points="601.71 299.88 573.29 320.55 571.6 319.76 571.6 176.64 657.02 114.48 657.02 358.93 636.19 349.38 636.19 315.68 601.71 299.88"/><polygon class="cls-2" points="606.13 352.53 606.13 337.56 630.88 319.55 636.19 315.68 636.19 349.38 624.12 349.89 618.07 343.84 606.13 352.53"/><polygon class="cls-1" points="599.85 389.4 572.6 376.91 606.13 352.53 618.07 343.84 624.12 349.89 629.72 355.5 670.67 365.19 677.04 371.56 599.85 422.1 599.85 389.4"/><polygon class="cls-4" points="606.13 352.53 571.65 355.43 571.65 334.08 571.65 326.46 571.65 321.76 606.13 337.56 606.13 352.53"/><polygon class="cls-1" points="573.29 320.55 601.71 299.88 636.19 315.68 630.88 319.55 606.13 337.56 571.65 321.76 573.29 320.55"/><polygon class="cls-1" points="550.81 422.61 522.59 409.66 542.98 394.82 542.98 394.8 545.41 393.04 542.98 391.93 567.11 374.38 572.6 376.91 599.85 389.4 550.81 422.61"/><polygon class="cls-2" points="536.65 161.09 522.68 170.63 522.68 139.26 536.65 129.69 536.65 140.51 536.65 144.35 536.65 161.09"/><polygon class="cls-2" points="516.7 744.53 516.7 469.01 519.09 467.43 519.09 457.98 525.32 453.74 525.32 470.91 550.81 454.2 550.81 422.61 599.85 389.4 599.85 422.1 677.04 371.56 677.04 372.53 677.04 385.25 682.03 381.89 688.01 377.56 688.01 628.24 516.7 744.53"/><polygon class="cls-4" points="522.59 409.66 550.81 422.61 550.81 454.2 522.59 425.93 522.59 413.3 522.59 409.66"/><polygon class="cls-5" points="405.49 390.65 393.67 388.27 520.22 296.22 525.23 308.22 525.25 308.27 525.37 308.57 541.1 307.23 435.47 384.07 429.7 384.56 419.76 385.39 405.49 390.65"/><polygon class="cls-1" points="520.62 434.87 508.96 423.21 522.59 413.3 522.59 425.93 550.81 454.2 525.32 470.91 525.32 453.74 522.93 452.65 520.62 434.87"/><polygon class="cls-4" points="492.16 194.6 492.16 174.27 514.89 184.7 514.89 205 492.16 194.6"/><polygon class="cls-4" points="508.96 423.21 520.62 434.87 508.96 429.54 508.96 423.21"/><polygon class="cls-4" points="522.68 170.63 505.6 162.31 505.6 136.27 505.6 130.91 515.1 135.55 522.68 139.26 522.68 170.63"/><polygon class="cls-2" points="494.57 409.96 494.57 379.58 508.4 369.52 508.4 399.48 508.4 399.9 494.57 409.96"/><polygon class="cls-1" points="494.57 379.58 477.17 371.61 491 361.55 508.4 369.52 494.57 379.58"/><polygon class="cls-5" points="436.63 154.27 421.48 147.34 426.06 143.98 419.83 141.13 418.83 140.67 449.1 118.68 449.1 132.93 471.37 143.13 490.38 129.29 498.14 132.86 505.6 136.27 505.6 162.31 522.68 170.63 536.65 161.09 536.65 144.35 549.61 150.29 556.79 149.52 564.35 148.73 514.89 184.7 492.16 174.27 441.22 150.94 436.63 154.27"/><polygon class="cls-4" points="508.96 429.54 497.3 424.19 508.96 423.21 508.96 429.54"/><polygon class="cls-4" points="494.57 409.96 477.17 401.99 477.17 394.48 477.17 371.61 494.57 379.58 494.57 409.96"/><polygon class="cls-2" points="492.58 420.23 530.67 392.51 530.67 396.45 492.58 424.16 492.58 420.23"/><polygon class="cls-2" points="471.37 143.13 471.37 112.09 490.38 98.14 490.38 129.29 471.37 143.13"/><polygon class="cls-2" points="520.22 296.22 482.08 278.74 482.08 228.87 514.89 205 514.89 184.7 564.35 148.73 564.35 152.91 564.35 161.41 571.6 156.15 571.6 176.64 571.6 319.76 555.61 312.44 555.61 309.98 525.69 296.26 523.61 297.77 520.22 296.22"/><polygon class="cls-5" points="482.08 222.27 473.76 218.44 472.02 209.22 481.31 202.48 492.16 194.6 514.89 205 482.08 228.87 482.08 222.27"/><polygon class="cls-5" points="477.12 431.65 470.81 428.78 475.13 425.63 492.58 424.16 530.67 396.45 530.67 392.51 524.53 389.7 571.65 355.43 606.13 352.53 572.6 376.91 567.11 374.38 542.98 391.93 542.98 394.8 542.98 394.82 522.59 409.66 522.59 413.3 508.96 423.21 497.3 424.19 477.12 431.63 477.12 431.65"/><polygon class="cls-4" points="471.37 143.13 449.1 132.93 449.1 118.68 449.1 101.88 471.37 112.09 471.37 143.13"/><polygon class="cls-4" points="461.41 411.9 461.41 405.95 492.58 420.23 492.58 424.16 475.13 425.63 461.41 411.9"/><polygon class="cls-2" points="453.25 243.24 482.08 222.27 482.08 228.87 482.08 278.74 457.44 267.46 457.44 257.42 453.25 255.5 453.25 243.24"/><polygon class="cls-1" points="451.19 399.79 435.47 384.07 541.1 307.23 556.82 322.96 571.65 326.46 571.65 334.08 571.65 355.43 524.53 389.7 522.89 388.94 508.4 399.48 508.4 369.52 491 361.55 477.17 371.61 477.17 394.48 461.41 405.95 461.41 411.9 475.13 425.63 470.81 428.78 457.58 422.7 457.56 422.7 453.83 420.09 453.83 420.06 451.19 399.79"/><polygon class="cls-4" points="451.67 427.08 506.34 452.14 519.09 457.98 519.09 467.43 451.67 436.54 451.67 427.08"/><polygon class="cls-2" points="445.3 280.69 433.11 275.11 457.44 257.42 457.44 267.46 457.44 275.75 457.44 277.91 445.3 286.74 445.3 280.69"/><polygon class="cls-2" points="447.87 253.04 439.51 249.2 451.23 240.67 451.23 254.57 447.87 253.04"/><polygon class="cls-5" points="472.02 217.66 445.65 205.56 445.65 194.25 445.42 188.09 444.17 185.47 481.31 202.48 472.02 209.22 472.02 217.66"/><polygon class="cls-4" points="444.17 185.47 442.59 182.13 441.22 180.72 441.22 150.94 492.16 174.27 492.16 194.6 481.31 202.48 444.17 185.47"/><polygon class="cls-4" points="442.68 188.32 442.91 194.09 442.68 194.67 442.68 188.32"/><polygon class="cls-2" points="436.63 176.27 436.63 154.27 441.22 150.94 441.22 180.72 437.4 176.75 436.63 176.27"/><polygon class="cls-4" points="440.06 182.73 442.68 188.32 442.68 194.67 442.59 194.9 440.73 199.72 440.6 199.88 440.06 198.75 440.06 182.73"/><polygon class="cls-4" points="435.47 392.6 435.47 384.07 451.19 399.79 435.47 392.6"/><polygon class="cls-4" points="435.17 177.68 440.06 182.73 440.06 198.75 435.17 193.69 435.17 177.68"/><polygon class="cls-5" points="390.51 223.17 261.04 163.84 315.22 125.42 408.29 170.1 408.29 179.83 428.22 189.41 435.17 193.69 440.06 198.75 440.6 199.88 438.51 202.29 436.73 201.48 410.91 220.27 400.85 215.66 390.51 223.17"/><polygon class="cls-4" points="428.22 189.41 428.22 173.39 435.17 177.68 435.17 193.69 428.22 189.41"/><polygon class="cls-4" points="431.53 390.79 419.76 385.39 429.7 384.56 435.47 384.07 435.47 392.6 431.53 390.79"/><polygon class="cls-4" points="421.48 147.34 436.63 154.27 436.63 176.27 430.1 172.26 421.48 168.11 421.48 147.34"/><polygon class="cls-5" points="332.42 116.96 320.9 111.45 362.4 82.62 362.4 63.61 352.02 55.36 422.45 6.63 430.98 10.54 506.11 45.1 569.93 74.44 612.6 94.06 657.02 114.48 571.6 176.64 571.6 156.15 564.35 152.91 564.35 148.73 556.79 149.52 536.65 140.51 536.65 129.69 519.57 121.36 511.23 127.07 509.4 128.32 506.18 126.88 498.14 132.86 490.38 129.29 490.38 98.14 477.12 92.07 468.1 87.95 449.1 101.88 449.1 118.68 418.83 140.67 418.83 149.27 418.83 157.84 418.32 158.21 332.42 116.96"/><polygon class="cls-1" points="409.05 307.06 369.17 288.8 413.41 256.61 416.84 254.13 416.84 254.11 429.75 244.72 439.51 249.2 447.87 253.04 451.23 254.57 453.25 255.5 457.44 257.42 433.11 275.11 445.3 280.69 409.05 307.06"/><polygon class="cls-4" points="428.22 189.41 408.29 179.83 408.29 170.1 408.29 163.82 428.22 173.39 428.22 189.41"/><polygon class="cls-5" points="404.84 244.65 395.47 240.37 411.72 228.52 418.79 223.4 453.25 239.21 451.23 240.67 439.51 249.2 429.75 244.72 416.84 254.11 416.84 250.15 413.41 248.57 413.41 242.85 409.73 241.16 404.84 244.65"/><polygon class="cls-1" points="418.79 223.4 411.72 228.52 411.72 220.65 410.91 220.27 436.73 201.48 438.51 202.29 440.69 203.29 443.31 204.49 445.65 205.56 472.02 217.66 473.76 218.44 482.08 222.27 453.25 243.24 453.25 239.21 418.79 223.4"/><polygon class="cls-4" points="408.48 396.82 417.77 403.33 451.67 427.08 451.67 436.54 408.48 416.75 408.48 396.82"/><polygon class="cls-4" points="408.29 163.82 412.14 163.61 419.83 167.32 421.48 168.11 430.1 172.26 436.63 176.27 437.4 176.75 441.22 180.72 442.59 182.13 444.17 185.47 445.42 188.09 445.65 194.25 443.31 200.25 440.69 203.29 438.51 202.29 440.6 199.88 440.73 199.72 442.59 194.9 442.68 194.67 442.91 194.09 442.68 188.32 440.06 182.73 435.17 177.68 428.22 173.39 408.29 163.82"/><polygon class="cls-2" points="411.72 220.65 411.72 228.52 395.47 240.37 388.82 237.31 411.72 220.65"/><polygon class="cls-2" points="445.3 300.41 409.05 326.79 409.05 307.06 445.3 280.69 445.3 286.74 445.3 291.1 445.3 300.41"/><polygon class="cls-4" points="403.65 321.38 369.17 324.31 369.17 288.8 409.05 307.06 409.05 326.79 403.65 321.38"/><polygon class="cls-1" points="370.14 365.93 358.49 354.25 403.65 321.38 409.05 326.79 445.3 300.41 445.3 291.1 467.62 274.87 479.27 286.55 520.22 296.22 393.67 388.27 373.53 384.19 372.46 383.7 370.14 365.93"/><polygon class="cls-4" points="367.48 388.5 408.48 396.82 408.48 416.75 367.48 397.95 367.48 388.5"/><polygon class="cls-4" points="367.48 397.95 299.9 366.99 299.9 357.54 331.63 372.07 367.48 388.5 367.48 397.95"/><polygon class="cls-1" points="350.91 260.11 327.18 248.96 345.05 236.29 368.75 247.46 350.91 260.11"/><polygon class="cls-4" points="358.49 354.25 370.14 365.93 358.49 360.57 358.49 354.25"/><polygon class="cls-4" points="358.49 360.57 346.83 355.24 358.49 354.25 358.49 360.57"/><polygon class="cls-2" points="368.75 255.5 350.91 268.18 350.91 260.11 368.75 247.46 368.75 255.5"/><polygon class="cls-2" points="347.57 51.82 400.23 15.37 422.45 0 422.45 6.63 352.02 55.36 347.57 51.82"/><polygon class="cls-4" points="350.91 268.18 327.18 257.01 327.18 248.96 350.91 260.11 350.91 268.18"/><polygon class="cls-5" points="306.67 102.32 271.77 75.87 327.76 37.06 328.43 36.59 337.86 44.1 337.88 44.1 344 48.99 347.57 51.82 352.02 55.36 362.4 63.61 331.63 84.98 306.67 102.32"/><polygon class="cls-5" points="320.37 359.81 369.17 324.31 403.65 321.38 358.49 354.25 346.83 355.24 326.62 362.68 320.37 359.81"/><polygon class="cls-4" points="315.22 111.91 331.63 119.79 414.45 159.56 408.29 163.82 408.29 170.1 315.22 125.42 315.22 111.91"/><polygon class="cls-2" points="315.22 108.43 310.4 106.12 310.15 106.28 309.4 105.93 306.67 107.81 306.67 102.32 331.63 84.98 362.4 63.61 362.4 82.62 320.9 111.45 315.22 108.71 315.22 108.43"/><polygon class="cls-2" points="320.37 359.81 305.88 353.18 305.6 353.39 305.6 321.27 413.41 242.85 413.41 248.57 413.41 252.65 413.41 256.61 369.17 288.8 369.17 324.31 320.37 359.81"/><polygon class="cls-4" points="271.77 131.68 271.77 115.69 271.77 75.87 306.67 102.32 306.67 107.81 306.67 108.76 278.86 128.46 271.77 133.49 271.77 131.68"/><polygon class="cls-4" points="287.6 317.28 302.06 323.84 302.06 355.96 299.9 357.54 299.9 366.99 296.7 369.31 296.7 476.79 287.6 472.65 287.6 468.47 287.6 317.28"/><polygon class="cls-4" points="296.7 369.31 415.2 423.01 414.89 529.66 516.7 577.06 516.7 744.53 296.7 629.38 296.7 369.31"/><polygon class="cls-5" points="253.48 144.98 240.76 139.14 263.26 122.13 271.77 115.69 271.77 131.68 253.48 145.33 253.48 144.98"/><polygon class="cls-4" points="287.6 468.47 264 457.77 264 302.4 291.12 314.71 287.6 317.28 287.6 468.47"/><polygon class="cls-4" points="246.74 454.13 246.74 449.94 246.74 298.77 260.48 305 260.48 460.36 246.74 454.13"/><polygon class="cls-2" points="253.48 160.39 253.48 152.19 279.16 134 315.22 108.43 315.22 108.71 315.22 111.91 315.22 125.42 261.04 163.84 253.48 160.39"/><polygon class="cls-2" points="253.48 160.39 240.51 154.44 253.48 144.98 253.48 145.33 253.48 146.46 253.48 152.19 253.48 160.39"/><polygon class="cls-4" points="246.74 449.94 210.4 433.46 210.4 278.1 250.26 296.17 246.74 298.77 246.74 449.94"/><polygon class="cls-4" points="193.14 429.82 193.14 425.6 193.14 274.46 206.86 280.69 206.86 436.05 193.14 429.82"/><polygon class="cls-1" points="382.36 234.34 178.51 141.9 175.97 143.75 175.97 142.87 185.63 135.85 199.81 125.54 204.05 122.43 204.15 122.36 240.76 139.14 253.48 144.98 240.51 154.44 253.48 160.39 261.04 163.84 390.51 223.17 400.85 215.66 410.91 220.27 411.72 220.65 388.82 237.31 382.36 234.34"/><polygon class="cls-4" points="169.73 414.99 169.73 259.63 196.68 271.86 193.14 274.46 193.14 425.6 169.73 414.99"/><polygon class="cls-4" points="152.42 411.37 152.42 407.15 152.42 256.01 166.16 262.24 166.16 417.61 152.42 411.37"/><polygon class="cls-2" points="149.52 200.81 149.52 192.84 159.28 185.74 159.28 215.55 149.52 222.62 149.52 200.81"/><polygon class="cls-2" points="125.1 234.11 125.1 218.58 149.52 200.81 149.52 222.62 130.43 236.54 130.4 236.54 125.1 234.13 125.1 234.11"/><polygon class="cls-4" points="149.52 200.81 142.31 197.49 142.31 189.52 149.52 192.84 149.52 200.81"/><path class="cls-5" d="M469.81,163.68l23.73,11.17,17.85-12.68v-8L487.68,143l-17.87,12.68ZM273.06,143.22l19.09-13.93,9.76-7.07V92.42L294.7,89.1l-2.45,1.79-18-8.23L318.6,50.43l2.55-1.86L525,141l6.46,3,6.66,3.06,9.36,4.29L471.06,206,448,222.52Z" transform="translate(-142.63 93.33)"/><polygon class="cls-2" points="131.66 175.99 126.88 173.81 153.76 154.25 175.97 138.1 175.97 142.87 175.97 143.75 131.66 175.99"/><polygon class="cls-5" points="126.88 173.81 119.67 170.5 120.42 169.96 125.7 166.12 168.76 134.78 175.97 138.1 153.76 154.25 126.88 173.81"/><polygon class="cls-4" points="117.66 236.01 155.99 253.39 152.42 256.01 152.42 407.15 117.66 391.37 117.66 298.14 117.66 236.01"/><polygon class="cls-2" points="112.7 301.76 112.7 219.63 125.1 210.59 125.1 218.58 125.1 234.11 122.11 232.77 117.66 236.01 117.66 298.14 117.66 391.37 112.7 394.99 112.7 301.76"/><polygon class="cls-4" points="97.84 388.17 97.84 382.29 97.84 214.9 97.84 212.81 112.7 219.63 112.7 301.76 112.7 394.99 97.84 388.17"/><polygon class="cls-2" points="99.23 177.75 99.23 169.78 108.97 162.69 108.97 170.68 99.23 177.75"/><polygon class="cls-4" points="99.23 169.78 99.23 177.75 92.03 174.46 92.03 166.46 99.23 169.78"/><polygon class="cls-4" points="75.02 204.45 97.84 214.9 97.84 382.29 75.02 371.84 75.02 204.45"/><polygon class="cls-5" points="80.16 200.72 80.16 192.72 74.81 190.29 74.81 190.26 74.81 187.55 74.34 187.34 74.34 187.32 92.03 174.46 99.23 177.75 108.97 170.68 111.12 169.13 113.25 167.55 119.67 170.5 126.88 173.81 131.66 175.99 149.62 184.22 142.31 189.52 142.31 197.49 149.52 200.81 125.1 218.58 125.1 210.59 117.89 207.3 115.59 208.97 107.95 205.47 97.84 212.81 97.84 214.9 75.02 204.45 80.16 200.72"/><polygon class="cls-2" points="70.06 200.07 80.16 192.72 80.16 200.72 75.02 204.45 75.02 371.84 70.06 375.45 70.06 200.07"/><polygon class="cls-4" points="134.16 486.11 55.23 449.56 55.23 372.86 294.23 481.2 294.23 628.24 249.89 607.96 249.89 541.08 194.41 515.71 137.98 489.89 134.16 492.71 134.16 486.11"/><polygon class="cls-4" points="70.06 375.45 58.77 370.28 55.23 372.86 55.23 449.56 55.2 449.56 55.2 340.32 55.2 331.88 55.2 268.27 55.2 248.25 55.2 241.41 55.2 227.5 55.2 204.7 55.2 193.25 70.06 200.07 70.06 375.45"/><polygon class="cls-5" points="29.06 267.53 3.89 256.29 13.7 249.08 16.34 247.16 16.34 247.13 35.9 232.77 55.2 241.41 55.2 248.25 29.06 267.53"/><polygon class="cls-4" points="55.2 340.32 0 315.08 0 306.86 55.2 331.88 55.2 340.32"/><polygon class="cls-4" points="35.9 218.86 55.2 227.5 55.2 241.41 35.9 232.77 35.9 218.86"/><polygon class="cls-5" points="55.2 227.5 35.9 218.86 55.2 204.7 55.2 227.5"/><polygon class="cls-4" points="29.06 287.55 3.89 276.31 3.89 256.29 29.06 267.53 29.06 287.55"/><polygon class="cls-4" points="12.61 329.29 0 323.49 0 315.08 55.2 340.32 55.2 449.56 27.58 436.77 24.33 439.13 24.33 446.04 12.61 454.2 12.61 454.18 12.61 329.29"/><polygon class="cls-4" points="10.47 338.86 0 334.06 0 325.97 10.47 330.79 10.47 338.86"/><polygon class="cls-5" points="0 306.86 0 279.18 3.89 276.31 29.06 287.55 55.2 268.27 55.2 331.88 0 306.86"/><polygon class="cls-5" points="326.62 362.68 346.83 355.24 358.49 354.25 370.14 365.93 372.46 383.7 326.62 362.68"/><polygon class="cls-5" points="419.76 385.39 435.47 384.07 451.19 399.79 453.83 420.06 418.04 394.66 405.49 390.65 419.76 385.39"/><polygon class="cls-5" points="470.81 428.78 473.98 425.63 508.96 423.21 520.62 434.87 522.93 452.65 470.81 428.78"/><polygon class="cls-2" points="264.03 302.42 260.48 304.94 260.48 460.36 264 457.77 264.03 302.42"/><polygon class="cls-2" points="210.41 278.1 206.86 280.62 206.86 436.05 210.38 433.46 210.41 278.1"/><polygon class="cls-2" points="169.71 259.38 166.16 261.9 166.16 417.61 169.69 414.99 169.71 259.38"/><g id="Windows"><polygon class="cls-2" points="303.89 398.06 303.89 480.66 387.53 519.48 387.53 515.29 307.75 478.16 307.75 400.3 303.89 398.06"/><polyline class="cls-6" points="304.2 480.86 308.07 478.36 387.84 515.49 387.84 519.68 304.2 480.86"/><polyline class="cls-7" points="307.75 400.3 387.44 437 387.53 515.29 307.75 478.16"/><polygon class="cls-2" points="303.89 509.06 303.89 591.66 387.53 630.48 387.53 626.29 307.75 589.16 307.75 511.3 303.89 509.06"/><polyline class="cls-6" points="304.2 591.86 308.07 589.36 387.84 626.49 387.84 630.68 304.2 591.86"/><polyline class="cls-7" points="307.75 511.3 387.44 548 387.53 626.29 307.75 589.16"/><polygon class="cls-2" points="413.89 559.06 413.89 641.66 497.53 680.48 497.53 676.29 417.75 639.16 417.75 561.3 413.89 559.06"/><polyline class="cls-6" points="414.2 641.86 418.07 639.36 497.84 676.49 497.84 680.68 414.2 641.86"/><polyline class="cls-7" points="417.75 561.3 497.44 598 497.53 676.29 417.75 639.16"/><polygon class="cls-4" points="588.99 449.05 588.99 532.03 585.13 529.52 585.13 451.67 588.99 449.05"/><polygon class="cls-6" points="589.25 532.02 585.38 529.52 536.69 561.88 536.69 566.07 589.25 532.02"/><polygon class="cls-8" points="585.13 451.66 537.42 483.39 537.33 561.68 585.13 529.52 585.13 451.66"/><polygon class="cls-4" points="666.45 399.49 666.45 482.47 662.58 479.96 662.58 402.11 666.45 399.49"/><polygon class="cls-6" points="666.7 482.46 662.83 479.96 614.15 512.32 614.15 516.51 666.7 482.46"/><polygon class="cls-8" points="662.58 402.1 614.88 433.83 614.79 512.12 662.58 479.96 662.58 402.1"/><polygon class="cls-4" points="588.99 559.05 588.99 642.03 585.13 639.52 585.13 561.67 588.99 559.05"/><polygon class="cls-6" points="589.25 642.02 585.38 639.52 536.69 671.88 536.69 676.07 589.25 642.02"/><polygon class="cls-8" points="585.13 561.66 537.42 593.39 537.33 671.68 585.13 639.52 585.13 561.66"/><polygon class="cls-4" points="666.45 509.49 666.45 592.47 662.58 589.96 662.58 512.11 666.45 509.49"/><polygon class="cls-6" points="666.7 592.46 662.83 589.96 614.15 622.32 614.15 626.51 666.7 592.46"/><polygon class="cls-8" points="662.58 512.1 614.88 543.83 614.79 622.12 662.58 589.96 662.58 512.1"/><polygon class="cls-2" points="215.4 301.16 215.4 332.4 240.94 343.98 240.94 339.79 219.27 329.9 219.27 303.04 215.4 301.16"/><polyline class="cls-6" points="215.4 332.29 240.99 344.11 240.99 339.92 219.27 329.78 215.4 332.4"/><polyline class="cls-7" points="219.27 329.9 240.99 339.98 240.9 312.82 219.27 303.04"/><polygon class="cls-2" points="215.4 346.16 215.4 377.4 240.94 388.98 240.94 384.79 219.27 374.9 219.27 348.04 215.4 346.16"/><polyline class="cls-6" points="215.4 377.29 240.99 389.11 240.99 384.92 219.27 374.78 215.4 377.4"/><polyline class="cls-7" points="219.27 374.9 240.99 384.98 240.9 357.82 219.27 348.04"/><polygon class="cls-2" points="215.4 391.16 215.4 422.4 240.94 433.98 240.94 429.79 219.27 419.9 219.27 393.04 215.4 391.16"/><polyline class="cls-6" points="215.4 422.29 240.99 434.11 240.99 429.92 219.27 419.78 215.4 422.4"/><polyline class="cls-7" points="219.27 419.9 240.99 429.98 240.9 402.82 219.27 393.04"/><polygon class="cls-2" points="122.4 264.16 122.4 295.4 147.94 306.98 147.94 302.79 126.27 292.9 126.27 266.04 122.4 264.16"/><polyline class="cls-6" points="122.4 295.29 147.99 307.11 147.99 302.92 126.27 292.78 122.4 295.4"/><polyline class="cls-7" points="126.27 292.9 147.99 302.98 147.9 275.82 126.27 266.04"/><polygon class="cls-2" points="122.4 309.16 122.4 340.4 147.94 351.98 147.94 347.79 126.27 337.9 126.27 311.04 122.4 309.16"/><polyline class="cls-6" points="122.4 340.29 147.99 352.11 147.99 347.92 126.27 337.78 122.4 340.4"/><polyline class="cls-7" points="126.27 337.9 147.99 347.98 147.9 320.82 126.27 311.04"/><polygon class="cls-2" points="122.4 354.16 122.4 385.4 147.94 396.98 147.94 392.79 126.27 382.9 126.27 356.04 122.4 354.16"/><polyline class="cls-6" points="122.4 385.29 147.99 397.11 147.99 392.92 126.27 382.78 122.4 385.4"/><polyline class="cls-7" points="126.27 382.9 147.99 392.98 147.9 365.82 126.27 356.04"/></g><polygon class="cls-2" points="737.87 476.58 737.87 539.5 801.58 569.08 801.58 565.88 740.81 537.6 740.81 478.29 737.87 476.58"/><polyline class="cls-6" points="738.11 539.65 741.05 537.75 801.82 566.03 801.82 569.23 738.11 539.65"/><polyline class="cls-7" points="740.81 478.29 801.51 506.25 801.58 565.88 740.81 537.6"/><polygon class="cls-2" points="814.05 512.17 814.05 575.09 877.76 604.66 877.76 601.47 817 573.18 817 513.88 814.05 512.17"/><polyline class="cls-6" points="814.29 575.24 817.24 573.34 878 601.62 878 604.81 814.29 575.24"/><polyline class="cls-7" points="817 513.88 877.69 541.84 877.76 601.47 817 573.18"/><polygon class="cls-7" points="773.99 632.93 799.91 644.96 799.84 585.32 739.15 557.37 739.15 603.74 773.99 619.55 773.99 632.93"/><polygon class="cls-2" points="812.38 591.25 812.38 654.17 876.09 683.74 876.09 680.54 815.33 652.26 815.33 592.95 812.38 591.25"/><polyline class="cls-7" points="815.33 592.95 876.03 620.91 876.09 680.54 815.33 652.26"/><polygon class="cls-2" points="736.39 555.78 736.39 602.3 739.34 603.74 739.34 557.49 736.39 555.78"/><polygon class="cls-2" points="414.89 447.06 414.89 529.66 498.53 568.48 498.53 564.29 418.75 527.16 418.75 449.3 414.89 447.06"/><polyline class="cls-6" points="415.2 529.86 419.07 527.36 498.58 564.24 498.58 568.42 415.2 529.86"/><polygon class="cls-4" points="415.2 423.01 414.89 447.06 498.58 485.4 498.58 568.42 516.7 577.06 516.7 469.01 415.2 423.01"/></svg>