<svg id="Foreground" xmlns="http://www.w3.org/2000/svg" viewBox="0 0 946.96 778.06"><defs><style>.cls-1{fill:#f7f7f7;}.cls-2{fill:#afafaf;}.cls-3{fill:#ededed;}.cls-4{fill:#e0e0e0;}.cls-5{fill:#f5f5f5;}.cls-6{fill:#eee;}</style></defs><polygon class="cls-1" points="619.85 114.32 565.97 153.88 565.97 59.05 435.89 0 391.46 32.61 323.82 4.22 288.75 27.21 254.11 11.77 206.87 50.27 43.94 158.76 43.94 181.22 7.13 203.18 7.32 209.96 0.61 215.59 2.12 509.13 930.9 511.44 930.9 281.87 882.65 267.32 882.65 234.55 619.85 114.32"/><polygon class="cls-2" points="874.38 778.06 874.38 435.77 946.96 378.16 946.96 409.94 946.96 415.8 946.96 422.31 946.96 424.65 946.96 440.8 946.96 452.74 946.96 468.45 946.96 486.9 946.96 490.56 946.96 493.76 946.96 695.49 946.96 709.33 946.96 718.74 946.96 730.93 946.96 771.44 946.96 778.06 874.38 778.06"/><polygon class="cls-2" points="890.88 332.46 882.65 328.75 882.65 306.6 916.39 281.87 916.39 365.23 890.88 354.45 890.88 332.46"/><polygon class="cls-2" points="890.88 354.45 873.47 347.09 890.88 332.46 890.88 354.45"/><polygon class="cls-3" points="882.65 270.59 882.65 266.44 916.39 281.87 882.65 306.6 882.65 270.59"/><polygon class="cls-2" points="882.65 328.75 834.63 307.11 834.63 269.89 882.65 234.55 882.65 266.44 882.65 270.59 882.65 306.6 882.65 328.75"/><polygon class="cls-2" points="802.49 778.06 802.49 441.89 874.38 435.77 874.38 778.06 802.49 778.06"/><polygon class="cls-2" points="792.83 288.27 792.83 283.26 834.63 252.81 834.63 269.89 834.63 307.11 792.83 288.27"/><polygon class="cls-3" points="792.83 283.26 682 232.56 723.81 202.13 834.63 252.81 792.83 283.26"/><polygon class="cls-4" points="682 232.56 792.83 283.26 792.83 288.27 682 238.33 682 238.3 682 232.56"/><polygon class="cls-3" points="802.49 441.89 538.35 321.66 614.8 266.86 628.7 273.18 669.35 243.84 678.95 236.94 682 238.3 682 238.33 792.83 288.27 834.63 307.11 882.65 328.75 890.88 332.46 873.47 347.09 890.88 354.45 916.39 365.23 946.96 378.16 874.38 435.77 802.49 441.89"/><polygon class="cls-4" points="632.6 168.48 655.91 178.35 655.91 196.8 632.6 186.93 632.6 183.56 632.6 168.48"/><path class="cls-3" d="M980,653l3.26-2.3v3.36l23.32,9.87,18.12-14.23V631.27l-23.31-9.87-3.16,2.48V622L975.55,611.3l-18.22,12.81V642.3Zm40,58L880.83,647.33l35.79-26.28L927,613.43l19.3-14.18,10-7.35,6.61-4.84,7.58-5.56,262.8,120.22-48,35.35V720L1074.46,669.3l-41.81,30.43v5.75l-3.06-1.37Z" transform="translate(-350.65 -467.17)"/><polygon class="cls-4" points="629.33 167.67 629.33 185.86 606.69 175.13 606.69 156.94 623.44 164.89 629.33 167.67"/><polygon class="cls-2" points="454.85 140.62 565.97 59.05 565.97 98.7 565.97 101.67 565.97 104.75 565.97 153.88 530.19 180.16 530.19 186.69 520.8 193.58 520.8 163.5 512.99 159.86 505.21 156.24 479.94 174.78 479.94 197.08 454.85 215.5 454.85 140.62"/><polygon class="cls-4" points="538.35 321.66 802.49 441.89 802.49 778.06 573.59 778.06 573.59 777.95 573.59 771.2 568.19 761.42 538.35 760.43 538.35 583.3 538.35 562.38 538.35 554.85 538.35 526.78 538.35 519.74 538.35 498.05 538.35 444.26 538.35 438.67 538.35 382.82 538.35 376.84 538.35 372.62 538.35 321.66"/><polygon class="cls-4" points="538.35 554.85 504.86 539.53 504.86 511.44 538.35 526.78 538.35 554.85"/><polygon class="cls-4" points="530.19 368.92 530.19 193.51 530.19 186.69 530.19 180.16 669.35 243.84 628.7 273.18 614.8 266.86 538.35 321.66 538.35 372.62 530.19 368.92"/><polygon class="cls-2" points="530.19 368.92 520.8 364.63 520.8 200.39 530.19 193.51 530.19 368.92"/><polygon class="cls-4" points="514.75 366.11 538.35 376.84 538.35 382.82 514.75 372.07 514.75 366.11"/><polygon class="cls-2" points="505.53 211.61 505.53 174.71 520.8 163.5 520.8 193.58 520.8 200.39 520.8 364.63 513.8 361.45 505.53 367.5 505.53 211.61"/><polygon class="cls-4" points="488.45 197.05 479.94 197.08 479.94 174.78 505.53 174.71 505.53 211.61 496.24 211.63 490.81 215.59 490.81 207.81 488.45 197.05"/><polygon class="cls-2" points="490.81 378.28 490.81 222.41 505.53 211.61 505.53 367.5 490.81 378.28"/><polygon class="cls-4" points="493.13 387.92 488.61 385.86 488.61 379.9 493.13 381.94 493.13 387.92"/><polygon class="cls-2" points="488.61 385.86 478.19 393.5 478.19 345.51 488.61 337.86 488.61 379.9 488.61 385.86"/><polygon class="cls-2" points="451.12 95.48 451.12 77.4 479 57.29 479 75.36 451.12 95.48"/><polygon class="cls-5" points="435.89 70.36 421.87 63.87 449.77 43.78 479 57.29 451.12 77.4 435.89 70.36"/><polygon class="cls-4" points="468.71 530.67 538.35 562.38 538.35 583.3 468.71 551.6 468.71 530.67"/><polygon class="cls-2" points="478.11 303.56 474.8 301.25 470.75 299.44 470.61 299.42 470.61 299.39 470.61 222.66 490.81 207.81 490.81 215.59 490.81 222.41 490.81 378.28 488.61 379.9 488.61 337.86 480.99 334.43 480.99 309.24 480.2 306.3 478.11 303.56"/><polygon class="cls-4" points="533.57 760.27 456.84 757.72 456.84 551.62 533.57 586.73 533.57 760.27"/><path class="cls-3" d="M772.52,549.14l29.24,13.51,27.88-20.11V524.46L800.42,511,772.52,531Zm32.21,55L691.57,552.76l95.73-70.27,113.16,51.36Z" transform="translate(-350.65 -467.17)"/><polygon class="cls-4" points="456.28 521.54 467.2 526.55 467.2 552.69 459.95 549.38 459.95 533.87 456.28 532.2 456.28 522.73 456.28 521.54"/><polygon class="cls-4" points="451.16 476.45 513.71 505.04 504.86 511.44 504.86 539.53 475.19 525.95 475.19 520.73 464.26 515.73 459.6 519.11 451.16 515.26 451.16 476.45"/><polygon class="cls-4" points="460.76 298.07 455.66 298.54 454.85 298.74 454.85 215.5 470.61 222.66 470.61 299.39 470.61 299.42 465.9 298.39 460.76 298.07"/><polygon class="cls-2" points="451.81 412.81 451.81 375.92 451.81 364.81 474.96 347.85 474.96 395.85 451.81 412.81"/><polygon class="cls-4" points="451.12 95.48 421.87 81.97 421.87 63.87 435.89 70.36 451.12 77.4 451.12 95.48"/><polygon class="cls-4" points="443.38 314.41 446.27 317.05 450.33 319.14 455.22 320.5 460.55 321.06 465.95 320.74 474.96 317.49 478.19 315.13 480.43 312.21 480.99 309.24 480.99 334.43 480.99 339.62 480.43 342.59 478.19 345.51 478.19 393.5 474.96 395.85 474.96 347.85 469.75 349.73 465.95 351.12 460.55 351.42 457.88 351.16 455.22 350.89 450.33 349.52 448.82 348.75 448.82 370.12 446.27 368.82 443.38 366.16 442.75 364.93 442.75 360.53 441.85 358.77 441.85 311.4 443.38 314.41"/><polygon class="cls-4" points="435.29 507.71 386.85 485.53 386.85 457.44 442.31 482.82 442.31 505.67 439.71 504.49 435.31 507.71 435.29 507.71"/><polygon class="cls-4" points="436.65 15.32 436.65 3.66 559.62 59.49 549.82 66.67 436.65 15.32"/><polygon class="cls-4" points="436.08 526.62 456.84 536.12 456.84 551.62 456.84 757.72 436.08 757.02 436.08 542.12 436.08 538.46 436.08 526.62"/><polygon class="cls-2" points="340.92 85.58 331.12 81.13 382.61 43.34 436.65 3.66 436.65 15.32 340.92 85.58"/><polygon class="cls-4" points="431.72 534.78 431.72 513.85 431.72 510.3 442.66 515.31 442.66 525.95 439.18 524.37 436.08 526.62 436.08 538.46 431.72 536.47 431.72 534.78"/><polygon class="cls-4" points="393.55 386.06 382.82 393.92 382.82 367.87 428.01 388.43 428.01 390.35 425.05 389.01 419.39 393.16 393.55 386.06"/><polygon class="cls-2" points="386.85 485.53 371.72 478.62 371.72 434.59 371.72 434.57 451.81 375.92 451.81 412.81 395.22 454.25 392.76 453.11 386.85 457.44 386.85 485.53"/><polygon class="cls-4" points="373.78 778.06 360.64 772.04 360.67 771.99 360.67 507.64 436.08 542.12 436.08 757.02 415.52 756.33 415.43 756.58 412.27 763.63 409.08 771.67 406.78 778.06 373.78 778.06"/><polygon class="cls-4" points="365.07 483.49 431.72 513.85 431.72 534.78 365.07 504.42 365.07 483.49"/><polygon class="cls-2" points="352.09 293.3 324.98 313.16 324.98 280.78 352.09 260.9 352.09 293.3"/><polygon class="cls-4" points="379.04 41.71 323.82 16.71 323.82 8.18 386.25 36.45 379.04 41.71"/><polygon class="cls-3" points="355.59 413.85 274.32 376.61 321.36 342.15 324.98 339.51 383.63 366.53 384.26 366.81 382.82 367.87 382.82 393.92 355.59 413.85"/><polygon class="cls-4" points="383.63 366.53 324.98 339.51 324.98 313.16 425.56 359.51 425.56 363.91 425.18 364.17 402.17 353.69 401.06 354.5 384.26 366.81 383.63 366.53"/><polygon class="cls-3" points="425.56 359.51 324.98 313.16 352.09 293.3 441.78 333.74 441.78 355.61 441.85 358.77 442.75 360.53 425.56 359.51"/><polygon class="cls-4" points="324.77 228.82 324.77 81.57 454.85 140.62 454.85 215.5 454.85 298.74 450.93 299.74 446.9 301.62 443.86 304.03 441.99 306.81 441.78 308.27 441.78 333.74 352.09 293.3 352.09 260.9 326.46 249.2 326.46 229.59 324.77 228.82"/><polygon class="cls-5" points="312.9 239.53 294.9 231.31 308.45 221.39 324.77 228.82 326.46 229.59 312.9 239.53"/><polygon class="cls-2" points="321.36 283.43 324.98 280.78 324.98 313.16 324.98 339.51 321.36 342.15 321.36 283.43"/><polygon class="cls-4" points="360.64 772.04 320.67 753.75 320.67 748.91 320.67 427.85 324.98 429.82 339.65 436.52 360.67 446.16 360.67 507.64 360.67 771.99 360.64 772.04"/><polygon class="cls-3" points="321.36 268.52 317.7 267.99 326.46 261.6 326.46 249.2 352.09 260.9 324.98 280.78 321.36 283.43 321.36 268.52"/><polygon class="cls-4" points="294.9 263.29 294.9 234.78 294.9 231.31 312.9 239.53 312.9 267.32 299.51 265.39 299.49 265.37 294.9 263.29"/><polygon class="cls-3" points="226.79 307.11 215.06 305.35 274.39 261.78 299.49 265.37 299.51 265.39 312.9 267.32 317.7 267.99 321.36 268.52 261.5 312.39 226.79 307.11"/><polygon class="cls-3" points="306.18 34.18 298.05 33.44 323.82 16.71 379.04 41.71 339.65 70.66 339.65 63.73 337.7 62.41 335.75 61.09 321.29 51.35 321.29 46.58 306.18 34.18"/><polygon class="cls-4" points="294.64 53.46 294.64 36.17 306.18 43.91 333.88 62.43 326.3 67.88 311.65 61.2 294.64 53.46"/><polygon class="cls-3" points="323.82 8.18 288.59 31.03 288.59 31.05 285.26 29.5 308.69 14.14 326.11 2.71 351.67 14.41 354.45 12.44 386.37 26.93 383.63 29.04 386.37 30.29 391.46 32.61 386.25 36.45 323.82 8.18"/><polygon class="cls-2" points="274.32 376.61 261.5 370.75 261.5 344.33 261.5 312.39 321.36 268.52 321.36 283.43 321.36 342.15 274.32 376.61"/><polygon class="cls-4" points="294.64 53.46 254.85 35.34 254.85 17.68 294.64 36.17 294.64 53.46"/><polygon class="cls-5" points="250.61 58.52 235.57 50.77 250.75 40.95 278.7 55.32 263.54 65.17 250.61 58.52"/><polygon class="cls-2" points="220.74 58.12 211.79 53.44 254.85 17.66 254.85 17.68 254.85 35.34 220.74 58.12"/><polygon class="cls-4" points="235.57 82.43 235.57 50.77 250.61 58.52 263.54 65.17 263.54 96.82 235.57 82.43"/><polygon class="cls-2" points="250.61 371.63 239.9 376.89 239.9 371.44 239.9 360.13 261.5 344.33 261.5 370.75 256.82 368.59 250.61 371.63"/><polygon class="cls-2" points="234.36 331.51 212.35 347.62 212.35 334.41 234.36 318.3 234.36 331.51"/><polygon class="cls-4" points="265.63 728.52 224.93 709.91 224.93 384.05 239.9 390.86 252.6 396.63 258.3 399.23 265.63 402.56 265.63 728.52"/><polygon class="cls-4" points="229.06 377.54 365.07 439.46 365.07 442.94 324.98 424.7 320.67 427.85 320.67 748.91 269.75 725.62 269.75 399.55 232.95 382.8 229.06 381.04 229.06 377.54"/><polygon class="cls-4" points="213.9 90.87 213.9 67 221.85 70.91 221.85 94.78 213.9 90.87"/><polygon class="cls-3" points="212.35 334.41 104.61 285.42 124.36 272.83 211.05 312.14 215.06 309.19 234.36 318.3 212.35 334.41"/><polygon class="cls-3" points="193.02 67.72 175.62 58.75 196.17 45.26 207.34 51.1 211.79 53.44 220.74 58.12 232.4 64.22 221.85 70.91 213.9 67 193.02 81.06 193.02 67.72"/><polygon class="cls-4" points="232.95 360.64 212.35 351.12 212.35 347.62 239.9 360.13 239.9 371.44 232.95 368.27 232.95 360.64"/><polygon class="cls-3" points="239.9 360.13 212.35 347.62 234.36 331.51 261.5 344.33 239.9 360.13"/><polygon class="cls-4" points="215.06 305.35 226.79 307.11 261.5 312.39 261.5 344.33 234.36 331.51 234.36 318.3 215.06 309.19 215.06 305.35"/><polygon class="cls-2" points="193.02 81.06 213.9 67 213.9 90.87 193.02 104.91 193.02 81.06"/><polygon class="cls-4" points="212.35 351.12 104.61 301.29 104.61 285.42 212.35 334.41 212.35 347.62 212.35 351.12"/><polygon class="cls-5" points="154.41 93.07 116.98 73.53 130.61 64.61 155.41 48.32 175.62 58.75 193.02 67.72 154.41 93.07"/><polygon class="cls-4" points="165.91 348.08 165.91 334.76 187.18 344.44 183.17 347.41 183.17 355.94 165.91 348.08"/><polygon class="cls-3" points="165.91 348.08 183.17 355.94 183.17 360.71 161.81 350.93 165.91 348.08"/><polygon class="cls-2" points="193.02 115.25 154.41 140.58 154.41 103.24 154.41 93.07 193.02 67.72 193.02 81.06 193.02 104.91 193.02 115.25"/><polygon class="cls-2" points="132.6 154.9 132.6 117.56 154.41 103.24 154.41 140.58 154.41 140.6 132.6 154.9"/><polygon class="cls-4" points="153.11 342.24 135.57 334.27 135.57 320.94 157.17 330.77 153.11 333.64 153.11 342.24"/><polygon class="cls-3" points="153.11 346.97 131.59 337.1 135.57 334.27 153.11 342.24 153.11 346.97"/><polygon class="cls-2" points="226.79 203.66 128.74 266.18 128.74 203.98 259.56 121.39 339.65 63.73 339.65 70.66 324.77 81.57 324.77 228.82 308.45 221.39 294.9 231.31 294.9 234.78 226.79 203.66"/><polygon class="cls-4" points="99.07 99.67 132.6 117.56 132.6 154.9 99.07 137.03 99.07 128.13 99.07 123.91 99.07 106.72 99.07 100.18 99.07 99.67"/><polygon class="cls-3" points="128.74 266.21 128.74 266.18 226.79 203.66 294.9 234.78 294.9 263.29 299.49 265.37 274.39 261.78 215.06 305.35 211.05 308.29 124.36 268.99 126.65 267.53 128.74 266.21"/><polygon class="cls-4" points="154.41 103.24 120.9 85.75 116.98 88.25 116.98 81.81 116.98 73.53 154.41 93.07 154.41 103.24"/><polygon class="cls-5" points="132.6 117.56 99.07 99.67 116.01 88.87 116.98 88.25 120.9 85.75 154.41 103.24 132.6 117.56"/><path class="cls-3" d="M601.4,508.12,586.22,518v31.66l28,14.39,15.15-9.85V522.49ZM436.23,639.38l-29-8.08,42.5-27.09,33.53,17.86,21.81-14.3v0l38.61-25.33V572.09L564.55,558l8,3.92,10.54-6.7V531.39l-11.66-6.09,34.12-22.78,39.79,18.12,17,7.74,14.64,6.67-70.54,50.8L475.79,668.49l1.67,1.25v0l-1.67-1.23v0h0v0Z" transform="translate(-350.65 -467.17)"/><polygon class="cls-2" points="56.57 164.12 46.86 161.43 99.07 128.13 99.07 137.03 56.57 164.12"/><polygon class="cls-4" points="88.71 304.19 104.96 311.61 131.59 323.8 131.59 337.1 153.11 346.97 153.11 342.24 153.11 333.64 161.81 337.63 161.81 350.93 183.17 360.71 183.17 355.94 183.17 347.41 224.93 366.51 224.93 384.05 224.93 709.91 88.71 647.57 88.71 304.19"/><polygon class="cls-3" points="88.71 304.19 98.03 298.26 104.61 301.29 212.35 351.12 232.95 360.64 224.93 366.51 183.17 347.41 187.18 344.44 165.91 334.76 161.81 337.63 153.11 333.64 157.17 330.77 135.57 320.94 131.59 323.8 104.96 311.61 88.71 304.19"/><polygon class="cls-4" points="98.14 196.24 83.43 180.21 83.43 173.6 116.98 198.21 126.65 205.3 126.65 231.72 124.15 230.43 118.56 233.97 98.14 223.4 98.14 196.24"/><polygon class="cls-4" points="69.22 189.31 81.58 202.82 83.92 205.37 83.92 232.56 69.22 224.91 69.22 189.31"/><polygon class="cls-4" points="69.22 224.91 54.55 217.28 54.55 200.65 54.55 190.1 69.22 189.31 69.22 224.91"/><polygon class="cls-4" points="88.71 647.57 60.51 634.66 60.51 243.01 88.71 255.92 88.71 304.19 88.71 647.57"/><polygon class="cls-4" points="58.45 636.3 25.33 621.15 25.33 618.58 25.33 229.5 58.45 244.63 58.45 636.3"/><polygon class="cls-4" points="44.84 195.57 44.84 189.13 44.84 162.71 83.43 173.6 83.43 180.21 68.81 180.97 54.55 190.1 54.55 200.65 44.84 195.57"/><polygon class="cls-4" points="7.32 201.69 13.09 206.74 7.32 210.52 7.32 201.69"/><polygon class="cls-4" points="0 393.09 0 387.15 0 337.7 0 299.07 0 277.07 0 245.49 0 215.31 27.53 227.92 25.33 229.5 25.33 618.58 0 606.99 0 393.09"/><polygon class="cls-2" points="344.87 117.56 344.87 200.16 428.51 238.98 428.51 234.79 348.74 197.66 348.74 119.8 344.87 117.56"/><polyline class="cls-1" points="345.19 200.36 349.06 197.86 428.83 234.99 428.83 239.18 345.19 200.36"/><polyline class="cls-6" points="348.74 119.8 428.42 156.5 428.51 234.79 348.74 197.66"/><polygon class="cls-2" points="344.87 232.49 344.87 293.79 348.74 291.28 348.74 234.73 344.87 232.49"/><polyline class="cls-6" points="348.74 234.73 428.42 271.43 428.51 327.76 348.74 291.52"/><polygon class="cls-2" points="564.71 367.04 564.71 449.64 648.35 488.46 648.35 484.27 568.58 447.14 568.58 369.28 564.71 367.04"/><polyline class="cls-1" points="565.02 449.84 568.89 447.33 648.66 484.47 648.66 488.66 565.02 449.84"/><polyline class="cls-6" points="568.58 369.28 648.26 405.98 648.35 484.27 568.58 447.14"/><polygon class="cls-2" points="679.01 415.64 679.01 498.24 762.65 537.06 762.65 532.87 682.88 495.74 682.88 417.88 679.01 415.64"/><polyline class="cls-1" points="679.32 498.44 683.19 495.93 762.96 533.07 762.96 537.26 679.32 498.44"/><polyline class="cls-6" points="682.88 417.88 762.56 454.58 762.65 532.87 682.88 495.74"/><polygon class="cls-2" points="567.42 478.11 567.42 560.72 651.06 599.54 651.06 595.35 571.29 558.21 571.29 480.36 567.42 478.11"/><polyline class="cls-1" points="567.74 560.91 571.6 558.41 651.38 595.55 651.38 599.74 567.74 560.91"/><polyline class="cls-6" points="571.29 480.36 650.97 517.06 651.06 595.35 571.29 558.21"/><polygon class="cls-2" points="681.72 526.71 681.72 609.32 765.36 648.14 765.36 643.95 685.59 606.81 685.59 528.95 681.72 526.71"/><polyline class="cls-1" points="682.03 609.51 685.9 607.01 765.67 644.14 765.67 648.33 682.03 609.51"/><polyline class="cls-6" points="685.59 528.95 765.27 565.65 765.36 643.95 685.59 606.81"/><polyline class="cls-1" points="604.61 93.81 607.56 91.91 668.32 120.19 668.32 123.39 604.61 93.81"/><polygon class="cls-1" points="565.82 72.23 565.97 68.83 592.13 81.27 592.13 84.46 565.82 72.23"/><polygon class="cls-2" points="263.54 65.17 278.43 54.84 278.43 86.97 263.54 96.82 263.54 65.17"/><polygon class="cls-2" points="221.85 70.91 232.4 64.22 232.4 88.09 221.85 94.78 221.85 70.91"/><polygon class="cls-2" points="323.82 8.18 288.59 31.03 298.05 33.44 323.82 16.71 323.82 8.18"/></svg>