<svg id="Foreground" xmlns="http://www.w3.org/2000/svg" viewBox="0 0 946.96 778.06">
  <defs>
    <style>
      .cls-1{fill:#f7f7f7}.cls-2{fill:#afafaf}.cls-3{fill:#ededed}.cls-4{fill:#e0e0e0}.cls-5{fill:#f5f5f5}.cls-6{fill:#eee}
    </style>
  </defs>
  <path class="cls-1" d="M619.85 114.32l-53.88 39.56V59.05L435.89 0l-44.43 32.61-67.64-28.39-35.07 22.99-34.64-15.44-47.24 38.5L43.94 158.76v22.46L7.13 203.18l.19 6.78-6.71 5.63 1.51 293.54 928.78 2.31V281.87l-48.25-14.55v-32.77l-262.8-120.23z"/>
  <path class="cls-2" d="M874.38 778.06V435.77l72.58-57.61v399.9h-72.58zM890.88 332.46l-8.23-3.71V306.6l33.74-24.73v83.36l-25.51-10.78v-21.99z"/>
  <path class="cls-2" d="M890.88 354.45l-17.41-7.36 17.41-14.63v21.99z"/>
  <path class="cls-3" d="M882.65 270.59v-4.15l33.74 15.43-33.74 24.73v-36.01z"/>
  <path class="cls-2" d="M882.65 328.75l-48.02-21.64v-37.22l48.02-35.34V328.75zM802.49 778.06V441.89l71.89-6.12v342.29h-71.89zM792.83 288.27v-5.01l41.8-30.45v54.3l-41.8-18.84z"/>
  <path class="cls-3" d="M792.83 283.26L682 232.56l41.81-30.43 110.82 50.68-41.8 30.45z"/>
  <path class="cls-4" d="M682 232.56l110.83 50.7v5.01L682 238.33V232.56z"/>
  <path class="cls-3" d="M802.49 441.89L538.35 321.66l76.45-54.8 13.9 6.32 40.65-29.34 9.6-6.9 3.05 1.36v.03l110.83 49.94 41.8 18.84 48.02 21.64 8.23 3.71-17.41 14.63 17.41 7.36 25.51 10.78 30.57 12.93-72.58 57.61-71.89 6.12z"/>
  <path class="cls-4" d="M632.6 168.48l23.31 9.87v18.45l-23.31-9.87v-18.45z"/>
  <path class="cls-3" d="M980 653l3.26-2.3v3.36l23.32 9.87 18.12-14.23v-18.43l-23.31-9.87-3.16 2.48V622l-22.68-10.7-18.22 12.81v18.19zm40 58l-139.17-63.67 35.79-26.28 10.38-7.62 19.3-14.18 10-7.35 6.61-4.84 7.58-5.56 262.8 120.22-48 35.35V720l-110.83-50.7-41.81 30.43v5.75l-3.06-1.37z" transform="translate(-350.65 -467.17)"/>
  <path class="cls-4" d="M629.33 167.67v18.19l-22.64-10.73v-18.19l16.75 7.95 5.89 2.78z"/>
  <path class="cls-2" d="M454.85 140.62l111.12-81.57v94.83l-35.78 26.28v6.53l-9.39 6.89V163.5l-7.81-3.64-7.78-3.62-25.27 18.54v22.3l-25.09 18.42v-74.88z"/>
  <path class="cls-4" d="M538.35 321.66l264.14 120.23v336.17h-228.9v-6.86l-5.4-9.78-29.84-.99V321.66zM538.35 554.85l-33.49-15.32v-28.09l33.49 15.34v28.07z"/>
  <path class="cls-4" d="M530.19 368.92V180.16l139.16 63.68-40.65 29.34-13.9-6.32-76.45 54.8v50.96l-8.16-3.7z"/>
  <path class="cls-2" d="M530.19 368.92l-9.39-4.29V200.39l9.39-6.88v175.41z"/>
  <path class="cls-4" d="M514.75 366.11l23.6 10.73v5.98l-23.6-10.75v-5.96z"/>
  <path class="cls-2" d="M505.53 211.61v-36.9l15.27-11.21v201.13l-7-3.18-8.27 6.05V211.61z"/>
  <path class="cls-4" d="M488.45 197.05l-8.51.03v-22.3l25.59-.07v36.9l-9.29.02-5.43 3.96v-7.78l-2.36-10.76z"/>
  <path class="cls-2" d="M490.81 378.28V222.41l14.72-10.8V367.5l-14.72 10.78z"/>
  <path class="cls-4" d="M493.13 387.92l-4.52-2.06v-5.96l4.52 2.04v5.98z"/>
  <path class="cls-2" d="M488.61 385.86l-10.42 7.64v-47.99l10.42-7.65v48zM451.12 95.48V77.4L479 57.29v18.07l-27.88 20.12z"/>
  <path class="cls-5" d="M435.89 70.36l-14.02-6.49 27.9-20.09L479 57.29 451.12 77.4l-15.23-7.04z"/>
  <path class="cls-4" d="M468.71 530.67l69.64 31.71v20.92l-69.64-31.7v-20.93z"/>
  <path class="cls-2" d="M478.11 303.56l-3.31-2.31-4.05-1.81-.14-.02v-76.76l20.2-14.85v170.47l-2.2 1.62v-42.04l-7.62-3.43v-25.19l-.79-2.94-2.09-2.74z"/>
  <path class="cls-4" d="M533.57 760.27l-76.73-2.55v-206.1l76.73 35.11v173.54z"/>
  <path class="cls-3" d="M772.52 549.14l29.24 13.51 27.88-20.11v-18.08L800.42 511l-27.9 20zm32.21 55l-113.16-51.38 95.73-70.27 113.16 51.36z" transform="translate(-350.65 -467.17)"/>
  <path class="cls-4" d="M456.28 521.54l10.92 5.01v26.14l-7.25-3.31v-15.51l-3.67-1.67v-10.66zM451.16 476.45l62.55 28.59-8.85 6.4v28.09l-29.67-13.58v-5.22l-10.93-5-4.66 3.38-8.44-3.85v-38.81zM460.76 298.07l-5.1.47-.81.2V215.5l15.76 7.16v76.76l-4.71-1.03-5.14-.32z"/>
  <path class="cls-2" d="M451.81 412.81v-48l23.15-16.96v48l-23.15 16.96z"/>
  <path class="cls-4" d="M451.12 95.48l-29.25-13.51v-18.1l14.02 6.49 15.23 7.04v18.08zM443.38 314.41l2.89 2.64 4.06 2.09 4.89 1.36 5.33.56 5.4-.32 9.01-3.25 3.23-2.36 2.24-2.92.56-2.97V339.62l-.56 2.97-2.24 2.92v47.99l-3.23 2.35v-48l-5.21 1.88-3.8 1.39-5.4.3-2.67-.26-2.66-.27-4.89-1.37-1.51-.77v21.37l-2.55-1.3-2.89-2.66-.63-1.23v-4.4l-.9-1.76V311.4l1.53 3.01zM435.29 507.71l-48.44-22.18v-28.09l55.46 25.38v22.85l-2.6-1.18-4.4 3.22h-.02zM436.65 15.32V3.66l122.97 55.83-9.8 7.18-113.17-51.35zM436.08 526.62l20.76 9.5v221.6l-20.76-.7v-230.4z"/>
  <path class="cls-2" d="M340.92 85.58l-9.8-4.45 51.49-37.79 54.04-39.68v11.66l-95.73 70.26z"/>
  <path class="cls-4" d="M431.72 534.78V510.3l10.94 5.01v10.64l-3.48-1.58-3.1 2.25v11.84l-4.36-1.99v-1.69zM393.55 386.06l-10.73 7.86v-26.05l45.19 20.56v1.92l-2.96-1.34-5.66 4.15-25.84-7.1z"/>
  <path class="cls-2" d="M386.85 485.53l-15.13-6.91V434.57l80.09-58.65v36.89l-56.59 41.44-2.46-1.14-5.91 4.33v28.09z"/>
  <path class="cls-4" d="M373.78 778.06l-13.14-6.02.03-.05V507.64l75.41 34.48v214.9l-20.56-.69-.09.25-3.16 7.05-3.19 8.04-2.3 6.39h-33zM365.07 483.49l66.65 30.36v20.93l-66.65-30.36v-20.93z"/>
  <path class="cls-2" d="M352.09 293.3l-27.11 19.86v-32.38l27.11-19.88v32.4z"/>
  <path class="cls-4" d="M379.04 41.71l-55.22-25V8.18l62.43 28.27-7.21 5.26z"/>
  <path class="cls-3" d="M355.59 413.85l-81.27-37.24 47.04-34.46 3.62-2.64 58.65 27.02.63.28-1.44 1.06v26.05l-27.23 19.93z"/>
  <path class="cls-4" d="M383.63 366.53l-58.65-27.02v-26.35l100.58 46.35v4.4l-.38.26-23.01-10.48-1.11.81-16.8 12.31-.63-.28z"/>
  <path class="cls-3" d="M425.56 359.51l-100.58-46.35 27.11-19.86 89.69 40.44v21.87l.07 3.16.9 1.76-17.19-1.02z"/>
  <path class="cls-4" d="M324.77 228.82V81.57l130.08 59.05v158.12l-3.92 1-4.03 1.88-3.04 2.41-1.87 2.78-.21 1.46v25.47l-89.69-40.44v-32.4l-25.63-11.7v-19.61l-1.69-.77z"/>
  <path class="cls-5" d="M312.9 239.53l-18-8.22 13.55-9.92 16.32 7.43 1.69.77-13.56 9.94z"/>
  <path class="cls-2" d="M321.36 283.43l3.62-2.65V339.51l-3.62 2.64v-58.72z"/>
  <path class="cls-4" d="M360.64 772.04l-39.97-18.29v-325.9l4.31 1.97 14.67 6.7 21.02 9.64V771.99l-.03.05z"/>
  <path class="cls-3" d="M321.36 268.52l-3.66-.53 8.76-6.39v-12.4l25.63 11.7-27.11 19.88-3.62 2.65v-14.91z"/>
  <path class="cls-4" d="M294.9 263.29v-31.98l18 8.22v27.79l-13.39-1.93-.02-.02-4.59-2.08z"/>
  <path class="cls-3" d="M226.79 307.11l-11.73-1.76 59.33-43.57 25.1 3.59.02.02 13.39 1.93 4.8.67 3.66.53-59.86 43.87-34.71-5.28zM306.18 34.18l-8.13-.74 25.77-16.73 55.22 25-39.39 28.95v-6.93l-1.95-1.32-1.95-1.32-14.46-9.74v-4.77l-15.11-12.4z"/>
  <path class="cls-4" d="M294.64 53.46V36.17l11.54 7.74 27.7 18.52-7.58 5.45-14.65-6.68-17.01-7.74z"/>
  <path class="cls-3" d="M323.82 8.18l-35.23 22.85v.02l-3.33-1.55 23.43-15.36 17.42-11.43 25.56 11.7 2.78-1.97 31.92 14.49-2.74 2.11 2.74 1.25 5.09 2.32-5.21 3.84-62.43-28.27z"/>
  <path class="cls-2" d="M274.32 376.61l-12.82-5.86v-58.36l59.86-43.87v73.63l-47.04 34.46z"/>
  <path class="cls-4" d="M294.64 53.46l-39.79-18.12V17.68l39.79 18.49v17.29z"/>
  <path class="cls-5" d="M250.61 58.52l-15.04-7.75 15.18-9.82 27.95 14.37-15.16 9.85-12.93-6.65z"/>
  <path class="cls-2" d="M220.74 58.12l-8.95-4.68 43.06-35.78v17.68l-34.11 22.78z"/>
  <path class="cls-4" d="M235.57 82.43V50.77l15.04 7.75 12.93 6.65v31.65l-27.97-14.39z"/>
  <path class="cls-2" d="M250.61 371.63l-10.71 5.26v-16.76l21.6-15.8v26.42l-4.68-2.16-6.21 3.04zM234.36 331.51l-22.01 16.11v-13.21l22.01-16.11v13.21z"/>
  <path class="cls-4" d="M265.63 728.52l-40.7-18.61V384.05l14.97 6.81 12.7 5.77 5.7 2.6 7.33 3.33v325.96z"/>
  <path class="cls-4" d="M229.06 377.54l136.01 61.92v3.48l-40.09-18.24-4.31 3.15v321.06l-50.92-23.29V399.55l-36.8-16.75-3.89-1.76v-3.5zM213.9 90.87V67l7.95 3.91v23.87l-7.95-3.91z"/>
  <path class="cls-3" d="M212.35 334.41l-107.74-48.99 19.75-12.59 86.69 39.31 4.01-2.95 19.3 9.11-22.01 16.11zM193.02 67.72l-17.4-8.97 20.55-13.49 11.17 5.84 4.45 2.34 8.95 4.68 11.66 6.1-10.55 6.69L213.9 67l-20.88 14.06V67.72z"/>
  <path class="cls-4" d="M232.95 360.64l-20.6-9.52v-3.5l27.55 12.51v11.31l-6.95-3.17v-7.63z"/>
  <path class="cls-3" d="M239.9 360.13l-27.55-12.51 22.01-16.11 27.14 12.82-21.6 15.8z"/>
  <path class="cls-4" d="M215.06 305.35l11.73 1.76 34.71 5.28v31.94l-27.14-12.82V318.3l-19.3-9.11v-3.84z"/>
  <path class="cls-2" d="M193.02 81.06L213.9 67v23.87l-20.88 14.04V81.06z"/>
  <path class="cls-4" d="M212.35 351.12l-107.74-49.83v-15.87l107.74 48.99v16.71z"/>
  <path class="cls-5" d="M154.41 93.07l-37.43-19.54 13.63-8.92 24.8-16.29 20.21 10.43 17.4 8.97-38.61 25.35z"/>
  <path class="cls-4" d="M165.91 348.08v-13.32l21.27 9.68-4.01 2.97v8.53l-17.26-7.86z"/>
  <path class="cls-3" d="M165.91 348.08l17.26 7.86v4.77l-21.36-9.78 4.1-2.85z"/>
  <path class="cls-2" d="M193.02 115.25l-38.61 25.33V93.07l38.61-25.35v47.53zM132.6 154.9v-37.34l21.81-14.32V140.6l-21.81 14.3z"/>
  <path class="cls-4" d="M153.11 342.24l-17.54-7.97v-13.33l21.6 9.83-4.06 2.87v8.6z"/>
  <path class="cls-3" d="M153.11 346.97l-21.52-9.87 3.98-2.83 17.54 7.97v4.73z"/>
  <path class="cls-2" d="M226.79 203.66l-98.05 62.52v-62.2l130.82-82.59 80.09-57.66v6.93l-14.88 10.91v147.25l-16.32-7.43-13.55 9.92v3.47l-68.11-31.12z"/>
  <path class="cls-4" d="M99.07 99.67l33.53 17.89v37.34l-33.53-17.87V99.67z"/>
  <path class="cls-3" d="M128.74 266.21v-.03l98.05-62.52 68.11 31.12v28.51l4.59 2.08-25.1-3.59-59.33 43.57-4.01 2.94-86.69-39.3 2.29-1.46 2.09-1.32z"/>
  <path class="cls-4" d="M154.41 103.24L120.9 85.75l-3.92 2.5V73.53l37.43 19.54v10.17z"/>
  <path class="cls-5" d="M132.6 117.56L99.07 99.67l16.94-10.8.97-.62 3.92-2.5 33.51 17.49-21.81 14.32z"/>
  <path class="cls-3" d="M601.4 508.12L586.22 518v31.66l28 14.39 15.15-9.85v-31.71zM436.23 639.38l-29-8.08 42.5-27.09 33.53 17.86 21.81-14.3 38.61-25.33v-10.35L564.55 558l8 3.92 10.54-6.7v-23.83l-11.66-6.09 34.12-22.78 39.79 18.12 17 7.74 14.64 6.67-70.54 50.8-130.65 82.64 1.67 1.25-1.67-1.23z" transform="translate(-350.65 -467.17)"/>
  <path class="cls-2" d="M56.57 164.12l-9.71-2.69 52.21-33.3v8.9l-42.5 27.09z"/>
  <path class="cls-4" d="M88.71 304.19l16.25 7.42 26.63 12.19v13.3l21.52 9.87v-13.33l8.7 3.99v13.3l21.36 9.78V347.41l41.76 19.1V709.91L88.71 647.57V304.19z"/>
  <path class="cls-3" d="M88.71 304.19l9.32-5.93 6.58 3.03 107.74 49.83 20.6 9.52-8.02 5.87-41.76-19.1 4.01-2.97-21.27-9.68-4.1 2.87-8.7-3.99 4.06-2.87-21.6-9.83-3.98 2.86-26.63-12.19-16.25-7.42z"/>
  <path class="cls-4" d="M98.14 196.24l-14.71-16.03v-6.61l33.55 24.61 9.67 7.09v26.42l-2.5-1.29-5.59 3.54-20.42-10.57v-27.16zM69.22 189.31l12.36 13.51 2.34 2.55v27.19l-14.7-7.65v-35.6zM69.22 224.91l-14.67-7.63V190.1l14.67-.79v35.6zM88.71 647.57l-28.2-12.91V243.01l28.2 12.91v391.65zM58.45 636.3l-33.12-15.15V229.5l33.12 15.13V636.3z"/>
  <path class="cls-4" d="M44.84 195.57v-32.86l38.59 10.89v6.61l-14.62.76-14.26 9.13v10.55l-9.71-5.08zM7.32 201.69l5.77 5.05-5.77 3.78v-8.83zM0 393.09V215.31l27.53 12.61-2.2 1.58v389.08L0 606.99v-213.9z"/>
  <path class="cls-2" d="M344.87 117.56v82.6l83.64 38.82v-4.19l-79.77-37.13V119.8l-3.87-2.24z"/>
  <path class="cls-1" d="M345.19 200.36l3.87-2.5 79.77 37.13v4.19l-83.64-38.82"/>
  <path class="cls-6" d="M348.74 119.8l79.68 36.7.09 78.29-79.77-37.13"/>
  <path class="cls-2" d="M344.87 232.49v61.3l3.87-2.51v-56.55l-3.87-2.24z"/>
  <path class="cls-6" d="M348.74 234.73l79.68 36.7.09 56.33-79.77-36.24"/>
  <path class="cls-2" d="M564.71 367.04v82.6l83.64 38.82v-4.19l-79.77-37.13v-77.86l-3.87-2.24z"/>
  <path class="cls-1" d="M565.02 449.84l3.87-2.51 79.77 37.14v4.19l-83.64-38.82"/>
  <path class="cls-6" d="M568.58 369.28l79.68 36.7.09 78.29-79.77-37.13"/>
  <path class="cls-2" d="M679.01 415.64v82.6l83.64 38.82v-4.19l-79.77-37.13v-77.86l-3.87-2.24z"/>
  <path class="cls-1" d="M679.32 498.44l3.87-2.51 79.77 37.14v4.19l-83.64-38.82"/>
  <path class="cls-6" d="M682.88 417.88l79.68 36.7.09 78.29-79.77-37.13"/>
  <path class="cls-2" d="M567.42 478.11v82.61l83.64 38.82v-4.19l-79.77-37.14v-77.85l-3.87-2.25z"/>
  <path class="cls-1" d="M567.74 560.91l3.86-2.5 79.78 37.14v4.19l-83.64-38.83"/>
  <path class="cls-6" d="M571.29 480.36l79.68 36.7.09 78.29-79.77-37.14"/>
  <path class="cls-2" d="M681.72 526.71v82.61l83.64 38.82v-4.19l-79.77-37.14v-77.86l-3.87-2.24z"/>
  <path class="cls-1" d="M682.03 609.51l3.87-2.5 79.77 37.13v4.19l-83.64-38.82"/>
  <path class="cls-6" d="M685.59 528.95l79.68 36.7.09 78.3-79.77-37.14"/>
  <path class="cls-1" d="M604.61 93.81l2.95-1.9 60.76 28.28v3.2l-63.71-29.58M565.82 72.23l.15-3.4 26.16 12.44v3.19l-26.31-12.23z"/>
  <path class="cls-2" d="M263.54 65.17l14.89-10.33v32.13l-14.89 9.85V65.17zM221.85 70.91l10.55-6.69v23.87l-10.55 6.69V70.91zM323.82 8.18l-35.23 22.85 9.46 2.41 25.77-16.73V8.18z"/>
</svg>
