<svg id="Mid" xmlns="http://www.w3.org/2000/svg" viewBox="0 0 563.1 1307.95"><defs><style>.cls-1{fill:#f7f7f7;}.cls-2{fill:#f5f5f5;}.cls-3{fill:#afafaf;}.cls-4{fill:#ededed;}.cls-5{fill:#e0e0e0;}.cls-6{fill:#eee;}</style></defs><polygon class="cls-1" points="256.01 419.82 279.3 404.82 386.95 456.78 386.95 466.57 393.99 461.38 499.16 511.51 499.16 607.15 533.25 607.17 563.1 632.18 563.1 708.22 408.58 809.28 408.58 1113.54 0 1113.54 0 417.54 2.06 250.03 80.95 169.43 256.01 250.56 256.01 419.82"/><polygon class="cls-2" points="535.75 646.2 517.95 638 529.15 629.88 546.94 638.07 535.75 646.2"/><polygon class="cls-3" points="535.75 662.91 535.75 646.2 546.94 638.07 546.94 650.16 546.94 654.82 535.75 662.91"/><polygon class="cls-3" points="523.07 662.51 523.07 654.89 534.5 646.59 534.5 662.72 534.5 663.44 523.07 671.69 523.07 662.51"/><polygon class="cls-4" points="523.07 654.89 503.05 645.69 514.48 637.39 517.95 638.99 534.5 646.59 523.07 654.89"/><polygon class="cls-5" points="517.77 670.9 514.45 673.25 503.05 663.58 503.05 645.69 523.07 654.89 523.07 662.51 523.07 671.69 517.77 670.9"/><polygon class="cls-5" points="440.64 767.33 433.64 766.43 433.64 766.41 433.64 735.79 433.64 726.57 471.35 733.68 471.35 742.51 464.02 747.31 464.02 777.48 460.13 775.75 456.49 778.43 443.84 767.75 440.64 767.33"/><polygon class="cls-5" points="266.09 1048.42 266.09 854.7 266.09 848.65 266.09 834.52 366.39 880.4 464.02 925.08 464.02 1138.98 266.09 1048.42"/><polygon class="cls-5" points="460.94 830.65 433.16 809.42 433.16 795.58 477.08 813.47 477.08 835.46 460.94 830.65"/><polygon class="cls-4" points="440.64 553.06 413.88 541.03 448.73 515.12 465.95 502.36 470.86 498.69 499.16 511.51 440.64 553.06"/><polygon class="cls-4" points="450.42 726.64 441.64 724.97 514.45 673.25 517.77 670.9 523.07 671.69 534.5 663.44 534.5 662.72 535.75 662.91 546.94 654.82 546.94 650.16 563.1 638.71 563.1 867.82 476.7 929.5 474.85 731.25 450.42 726.64"/><polygon class="cls-3" points="440.64 649.05 440.64 562.79 440.64 553.06 499.16 511.51 499.16 517.39 499.16 584.25 499.16 607.15 440.64 649.05"/><polygon class="cls-4" points="382.94 881.98 322.38 854.22 322.38 853.24 440.5 773.78 451.35 782.21 433.16 795.58 433.16 809.42 460.94 830.65 382.94 881.98"/><polygon class="cls-4" points="420.46 899.17 382.94 881.98 460.94 830.65 477.08 835.46 477.08 924.15 420.46 898.18 420.46 899.17"/><polygon class="cls-5" points="413.88 541.03 440.64 553.06 440.64 562.79 413.88 550.77 413.88 541.03"/><polygon class="cls-2" points="377.14 719.8 533.25 607.17 563.1 632.18 563.1 638.71 546.94 650.16 546.94 638.07 529.15 629.88 517.95 638 517.95 638.99 514.48 637.39 503.05 645.69 503.05 663.58 514.45 673.25 441.64 724.97 437.05 724.11 433.64 726.57 433.64 735.79 408.31 753.78 408.31 746.62 394.43 740.13 377.14 719.8"/><polygon class="cls-5" points="398.35 761.79 391.05 758.53 391.05 742.61 404.88 749.05 404.88 762.65 398.35 761.79"/><polygon class="cls-4" points="360.5 529.01 342.57 520.38 386.95 487.59 414.15 489.35 360.5 529.01"/><polygon class="cls-5" points="386.95 487.59 386.95 466.57 393.99 469.77 443.58 492.23 443.58 513.34 428.87 501.33 414.15 489.35 386.95 487.59"/><polygon class="cls-3" points="332.16 515.38 312.02 530.28 312.02 515.36 386.95 459.97 386.95 466.57 386.95 487.59 342.57 520.38 332.16 515.38"/><polygon class="cls-5" points="381.71 770.97 381.71 758.5 395.29 764.58 440.32 770.39 452.9 781.05 451.35 782.21 440.5 773.78 440.32 773.64 440.32 773.8 439.39 773.85 393.04 776.02 381.71 770.97"/><polygon class="cls-3" points="347.8 789.49 381.71 758.5 381.71 770.97 347.8 801.96 347.8 789.49"/><polygon class="cls-4" points="372.83 714.73 353.13 714.75 370.26 702.26 370.26 699.46 440.64 649.05 499.16 607.15 516.19 607.15 533.25 607.17 377.14 719.8 372.83 714.73"/><polygon class="cls-4" points="320.44 853.33 295.41 841.86 295.41 841.84 393.04 776.02 439.39 773.85 440.32 773.8 440.5 773.78 322.38 853.24 320.44 853.33"/><polygon class="cls-3" points="358.21 593.11 358.21 570.44 373.02 560.06 373.02 582.73 358.21 593.11"/><polygon class="cls-3" points="370.26 694.12 366.39 692.34 366.39 615.54 440.64 562.79 440.64 649.05 370.26 699.46 370.26 694.12"/><polygon class="cls-5" points="369.47 717.18 386.32 737.04 391.05 742.61 391.05 758.53 380.23 753.68 369.47 763.53 369.47 717.18"/><polygon class="cls-3" points="361.89 533.01 339.3 549.28 336.54 548.05 361.89 529.68 361.89 533.01"/><polygon class="cls-5" points="330.24 579.83 330.24 562.91 330.24 557.16 358.21 570.44 358.21 593.11 330.24 579.83"/><polygon class="cls-3" points="353.13 714.75 342.03 714.77 366.39 696.95 370.26 694.12 370.26 699.46 370.26 702.26 353.13 714.75"/><polygon class="cls-2" points="358.21 570.44 330.24 557.16 340.3 549.72 344.44 546.66 363.21 555.47 373.02 560.06 358.21 570.44"/><polygon class="cls-3" points="294.36 841.38 283.94 836.6 347.8 789.49 347.8 801.96 294.36 841.38"/><polygon class="cls-5" points="338.67 717.23 369.47 717.18 369.47 763.53 346.76 784.32 346.74 784.3 338.67 780.75 338.67 780.73 338.67 717.23"/><polygon class="cls-2" points="363.21 555.47 344.44 546.66 340.3 549.72 339.3 549.28 361.89 533.01 361.89 529.68 360.5 529.01 414.15 489.35 428.87 501.33 443.58 513.34 400.85 544.9 386.32 538.39 363.21 555.47"/><polygon class="cls-5" points="334.27 715.17 338.67 717.23 338.67 780.73 334.27 778.8 334.27 715.17"/><polygon class="cls-3" points="313.39 686.96 313.39 658.27 324.84 649.98 324.84 774.63 321.62 773.22 321.62 690.7 313.39 686.96"/><polygon class="cls-2" points="313.39 658.27 293.85 649.3 303.96 641.98 313.13 646.13 314.46 645.16 324.84 649.98 313.39 658.27"/><polygon class="cls-5" points="324.84 649.98 314.46 645.16 314.46 591.49 366.39 615.54 366.39 692.34 337.7 712.73 334.27 715.17 334.27 778.8 324.84 774.63 324.84 649.98"/><polygon class="cls-4" points="366.39 615.54 314.46 591.49 330.24 579.83 358.21 593.11 373.02 582.73 373.02 560.06 363.21 555.47 386.32 538.39 400.85 544.9 413.88 550.77 440.64 562.79 366.39 615.54"/><polygon class="cls-3" points="314.46 591.49 314.46 571.88 330.24 562.91 330.24 579.83 314.46 591.49"/><polygon class="cls-5" points="313.39 686.96 297.17 679.62 293.85 681.87 293.85 649.3 313.39 658.27 313.39 686.96"/><polygon class="cls-3" points="290.73 527.64 260.09 545.09 260.06 545.09 258.4 544.3 254.32 538.79 312.02 496.1 312.02 511.76 312.02 515.36 312.02 530.28 306.23 534.54 290.73 527.64"/><polygon class="cls-2" points="336.54 548.05 306.23 534.54 312.02 530.28 332.16 515.38 342.57 520.38 360.5 529.01 361.89 529.68 336.54 548.05"/><polygon class="cls-2" points="208.18 542.93 186.14 532.27 266.99 475.43 312.02 496.1 254.32 538.79 232.67 554.8 208.18 542.93"/><polygon class="cls-4" points="393.04 776.02 295.41 841.84 295.41 841.86 294.36 841.38 347.8 801.96 381.71 770.97 393.04 776.02"/><polygon class="cls-2" points="286.76 686.69 290.26 684.3 292.63 682.7 293.85 681.87 297.17 679.62 313.39 686.96 321.62 690.7 304.05 702.68 279.3 691.76 286.76 686.69"/><polygon class="cls-5" points="279.3 754.54 279.3 697.18 279.3 694.52 279.3 691.76 304.05 702.68 304.05 765.46 279.3 754.54"/><polygon class="cls-3" points="265.7 668.7 265.7 622.26 275.11 614.75 275.11 674.71 275.11 674.73 270.05 672.41 270.03 672.41 265.7 668.7"/><polygon class="cls-5" points="259.12 646.52 246.76 640.89 246.76 613.66 256.61 618.13 265.7 622.26 265.7 668.7 259.12 663.09 259.12 646.52"/><polygon class="cls-2" points="256.61 618.13 246.76 613.66 256.61 606.36 275.11 614.75 265.7 622.26 256.61 618.13"/><polygon class="cls-2" points="260.09 545.09 290.73 527.64 306.23 534.54 336.54 548.05 339.3 549.28 340.3 549.72 330.24 557.16 330.24 562.91 314.46 571.88 314.46 570.28 286.95 557.53 260.09 545.09"/><polygon class="cls-5" points="256.61 545.62 313.13 571.25 313.13 646.13 303.96 641.98 293.85 649.3 293.85 681.87 292.63 682.7 275.11 674.73 275.11 674.71 275.11 614.75 256.61 606.36 256.61 545.62"/><polygon class="cls-3" points="257.14 661.4 239.49 674.63 239.49 666.29 246.76 660.91 257.14 653.25 257.14 657.32 257.14 661.4"/><polygon class="cls-3" points="256.01 434.45 221.29 458.6 221.29 274.71 248.85 255.55 256.01 250.56 256.01 250.68 256.01 278.35 256.01 286.58 256.01 294.99 256.01 297.47 256.01 305.56 256.01 317.63 256.01 434.45"/><polygon class="cls-3" points="225.88 227.44 225.88 32.17 269.71 0 269.71 220.57 259.9 227.78 259.9 247.81 256.01 250.68 256.01 250.56 232.42 239.56 232.42 238.21 230.66 229.54 225.88 227.44"/><polygon class="cls-5" points="247.39 254.85 232.42 247.88 232.42 241.09 253.25 250.79 247.39 254.85"/><polygon class="cls-3" points="232.67 634.5 232.67 554.8 254.32 538.79 258.4 544.3 256.61 545.62 256.61 606.36 246.76 613.66 246.76 640.89 232.67 634.5"/><polygon class="cls-3" points="232.42 261.71 223.47 268.82 223.47 245.33 232.42 238.21 232.42 239.56 232.42 241.09 232.42 247.88 232.42 261.71"/><polygon class="cls-5" points="222.59 672.57 222.59 658.78 239.49 666.29 239.49 674.63 236.87 672.48 222.59 672.57"/><polygon class="cls-5" points="168.64 22.5 168.64 19.47 168.64 5.98 225.88 32.17 225.88 227.44 218.37 224.12 203.87 225.16 202.85 225.74 168.64 209.8 168.64 209.78 168.64 22.5"/><polygon class="cls-3" points="212.77 226.69 232.42 238.21 223.47 245.33 212.77 226.69"/><polygon class="cls-5" points="218.98 675.24 209.85 675.28 209.85 666.36 209.85 661.45 209.85 657.35 218.98 661.45 218.98 675.24"/><polygon class="cls-4" points="214.06 654.38 198.65 647.4 216.03 634.57 257.14 653.25 246.76 660.91 239.49 666.29 222.59 658.78 218.98 661.45 209.85 657.35 214.06 654.38"/><polygon class="cls-5" points="207.99 258.77 207.99 246.32 223.47 245.33 223.47 268.82 221.29 268.96 221.29 254.8 219.79 254.09 210.98 260.16 207.99 258.77"/><polygon class="cls-3" points="216.03 634.57 198.65 647.4 198.65 642.19 216.03 629.33 216.03 634.57"/><polygon class="cls-3" points="223.47 245.33 207.99 246.32 212.77 226.69 223.47 245.33"/><polygon class="cls-3" points="210.03 587.52 227.64 574.85 227.64 632.2 214.43 626.2 210.03 629.45 210.03 587.52"/><polygon class="cls-4" points="266.09 848.65 212.86 824.74 234.76 812.85 234.76 794.22 221.29 787.63 219.72 786.87 279.3 754.54 304.05 765.46 321.62 773.22 324.84 774.63 334.27 778.8 338.67 780.73 338.67 780.75 346.74 784.3 346.76 784.32 343.15 787.61 279.46 834.54 271.24 830.79 266.09 834.52 266.09 848.65"/><polygon class="cls-5" points="185.26 667.94 170.52 660.96 170.52 568.82 210.03 587.52 210.03 629.45 210.03 629.47 195.27 640.36 195.27 660.54 185.26 667.94"/><polygon class="cls-3" points="206.88 823.69 206.88 813.22 234.76 794.22 234.76 812.85 212.86 824.74 208.34 822.7 206.88 823.69"/><polygon class="cls-3" points="203.87 244.42 194.85 240.27 212.77 226.69 207.99 246.32 203.87 244.42"/><polygon class="cls-3" points="212.77 226.69 194.85 240.27 193.93 230.96 212.77 226.69"/><polygon class="cls-5" points="207.99 258.77 194.85 252.63 194.85 240.27 203.87 244.42 207.99 246.32 207.99 258.77"/><polygon class="cls-5" points="198.65 647.4 214.06 654.38 209.85 657.35 209.85 661.45 205.37 659.43 198.65 664.23 198.65 662.38 198.65 647.4"/><polygon class="cls-5" points="202.45 680.59 193.74 680.68 193.74 675.91 193.74 667.73 202.45 671.58 202.45 680.59"/><polygon class="cls-4" points="139.02 743.95 116.11 733.34 193.74 675.91 193.74 680.68 202.45 680.59 209.85 675.28 218.98 675.24 222.59 672.57 236.87 672.48 139.02 743.95"/><polygon class="cls-3" points="116.11 733.34 107.85 729.54 198.65 662.38 198.65 664.23 193.74 667.73 193.74 675.91 116.11 733.34"/><polygon class="cls-4" points="209.57 585.04 179.28 570.7 191.33 562.4 221.04 576.79 209.57 585.04"/><polygon class="cls-3" points="191.33 562.4 179.28 570.7 174.85 568.59 191.33 557.26 191.33 562.4"/><polygon class="cls-5" points="188.97 556.12 186.14 558.07 186.14 551.55 186.14 546.48 186.14 532.27 208.18 542.93 232.67 554.8 232.67 634.5 227.64 632.2 227.64 574.85 226.49 574.29 225.3 573.71 221.04 576.79 191.33 562.4 191.33 557.26 188.97 556.12"/><polygon class="cls-5" points="143.36 648.1 120.81 664.3 120.81 521.89 186.14 551.55 186.14 558.07 170.52 568.82 170.52 660.96 143.36 648.1"/><polygon class="cls-2" points="169.8 758.18 139.02 743.95 236.87 672.48 239.49 674.63 257.14 661.4 259.12 663.09 265.7 668.7 270.03 672.41 270.05 672.41 276.47 677.9 286.76 686.69 279.3 691.76 279.3 694.52 183.22 758.9 183.22 752.87 179.93 751.39 169.8 758.18"/><polygon class="cls-3" points="199.58 796.58 184.54 789.51 183.22 790.41 183.22 762.61 279.3 697.18 279.3 754.54 219.72 786.87 216.29 785.18 199.58 796.58"/><polygon class="cls-5" points="195.43 878.55 169.24 866.31 169.24 810.39 266.09 854.7 266.09 1048.42 202.71 1019.4 202.71 876.9 200.07 875.65 195.43 878.55"/><polygon class="cls-5" points="206.88 823.69 173.14 807.73 173.14 797.27 206.88 813.22 206.88 823.69"/><polygon class="cls-4" points="206.88 813.22 173.14 797.27 183.22 790.41 184.54 789.51 199.58 796.58 216.29 785.18 219.72 786.87 221.29 787.63 234.76 794.22 206.88 813.22"/><polygon class="cls-3" points="169.24 810.39 169.24 762.4 183.22 752.87 183.22 758.9 183.22 762.61 183.22 790.41 173.14 797.27 173.14 807.73 169.24 810.39"/><polygon class="cls-5" points="90.64 790.95 90.64 783.81 90.64 765.66 90.64 740.85 90.64 734.24 90.64 726.43 169.24 762.4 169.24 810.39 169.24 866.31 142.13 853.66 103.52 835.61 103.52 831.11 101.13 830 90.64 837.23 90.64 790.95"/><polygon class="cls-5" points="186.21 884.32 141.81 864.02 141.81 858.71 191.14 881.24 186.21 884.32"/><polygon class="cls-4" points="32.51 914.14 11.47 904.5 91.03 849.56 97.66 852.75 97.66 886.26 126.07 899.36 141.81 887.98 141.81 864.02 186.21 884.32 169.73 894.61 152.58 905.41 83.27 954.65 83.27 937.39 72.17 932.29 72.17 918.36 45.68 904.97 32.51 913.66 32.51 914.14"/><polygon class="cls-3" points="126.07 899.36 126.07 865.73 141.81 854.35 141.81 858.71 141.81 864.02 141.81 887.98 126.07 899.36"/><polygon class="cls-4" points="179.23 256.91 127.62 232.72 129.22 231.49 129.22 216.29 131.21 214.64 132.56 211.03 132.56 201.27 194.92 230.38 193.93 230.96 193.93 252.19 188.59 249.71 179.23 256.91"/><polygon class="cls-4" points="131.12 521.34 221.29 458.62 221.29 458.6 256.01 434.45 266.48 427.18 268.62 425.69 280.34 417.54 378.16 462.8 312.02 511.76 312.02 496.1 266.99 475.43 186.14 532.27 186.14 546.48 131.12 521.34"/><polygon class="cls-5" points="132.56 194.48 201.39 226.6 194.92 230.38 132.56 201.27 132.56 194.48"/><polygon class="cls-3" points="221.29 458.62 131.12 521.34 130.73 521.17 130.73 521.15 130.73 329.63 130.73 317.82 221.29 254.8 221.29 268.96 221.29 272.95 221.29 274.71 221.29 458.6 221.29 458.62"/><polygon class="cls-5" points="117.45 243.17 185.58 274.43 179.07 279.16 117.45 250.89 117.45 243.17"/><polygon class="cls-4" points="159.19 293.6 97.59 265.33 117.45 250.89 179.07 279.16 159.19 293.6"/><polygon class="cls-3" points="85.35 693.52 85.35 673.52 105.26 659.8 111.52 655.49 111.52 670.97 111.52 675.52 85.35 693.52"/><polygon class="cls-3" points="97.59 265.33 91.08 262.34 117.45 243.17 117.45 250.89 97.59 265.33"/><polygon class="cls-3" points="93.23 254.87 93.23 219.09 93.23 208.36 110.08 195.36 129.22 180.55 129.22 182.82 129.22 193.34 129.22 216.29 129.22 231.49 127.62 232.72 125.47 231.72 93.23 254.87"/><polygon class="cls-4" points="85.35 673.52 16.38 640.13 42.57 622.1 85.19 642.75 91.45 645.78 96.52 648.24 111.52 655.49 105.26 659.8 85.35 673.52"/><polygon class="cls-5" points="2.06 272.49 129.31 330.63 129.31 520.5 129.31 520.52 125.26 518.67 120.81 521.89 120.81 664.3 111.52 670.97 111.52 655.49 96.52 648.24 96.52 363.47 25.95 331.21 16.92 337.68 16.92 352.81 2.06 363.45 2.06 272.49"/><polygon class="cls-5" points="97.66 852.64 107.76 857.27 126.07 865.73 126.07 899.36 97.66 886.26 97.66 852.75 97.66 852.64"/><polygon class="cls-4" points="101.94 849.53 103.52 848.4 113.39 841.26 141.81 854.35 126.07 865.73 107.76 857.27 97.66 852.64 101.94 849.53"/><polygon class="cls-4" points="87.44 370.05 16.92 337.68 25.95 331.21 96.52 363.47 87.44 370.05"/><polygon class="cls-3" points="87.44 635.89 87.44 397.58 87.44 370.05 96.52 363.47 96.52 648.24 91.45 645.78 91.45 637.72 87.44 635.91 87.44 635.89"/><polygon class="cls-5" points="91.03 844.23 101.94 849.53 97.66 852.64 97.66 852.75 91.03 849.56 91.03 844.23"/><polygon class="cls-3" points="77.1 195.5 77.1 184.49 91.01 173.76 91.01 184.77 77.1 195.5"/><polygon class="cls-5" points="37.98 741.7 2.06 725.34 2.06 700.99 90.64 740.85 90.64 765.66 37.98 741.7"/><polygon class="cls-5" points="144.08 306.37 83.08 278.67 83.08 267.13 83.08 262.15 158.51 296.4 144.08 306.37"/><path class="cls-4" d="M114.07,118.35,87.7,137.52l6.51,3,61.6,28.28,19.88-14.44,6.51-4.73Zm41.07,53.23L79.7,137.33l10.15-7.28,32.24-23.15,2.15,1,51.61,24.19,9.37-7.2,5.33,2.47.92.45L204.61,134l3,1.39Z" transform="translate(3.38 124.82)"/><polygon class="cls-3" points="59.3 623.1 59.3 418 87.44 397.58 87.44 635.89 59.3 623.1"/><polygon class="cls-5" points="16.92 337.68 87.44 370.05 87.44 397.58 18.91 366.11 18.91 353.74 16.92 352.81 16.92 337.68"/><polygon class="cls-5" points="85.35 693.52 16.38 660.13 16.38 640.13 85.35 673.52 85.35 693.52"/><polygon class="cls-4" points="77.1 184.49 67.04 180.16 80.95 169.43 91.01 173.76 77.1 184.49"/><polygon class="cls-3" points="155.62 1199.65 2.06 1307.95 2.06 1022.69 48.99 990.99 48.99 961.07 83.27 937.39 83.27 954.65 83.27 956.83 155.62 905.8 202.71 876.9 202.71 1019.4 202.71 1053.61 202.71 1056.23 202.71 1137.45 202.71 1170.76 155.62 1199.65"/><polygon class="cls-4" points="112.17 321.18 65.4 299.86 82.36 286.99 82.36 267.69 83.08 267.13 83.08 278.67 144.08 306.37 128.8 316.94 128.8 328.78 112.17 321.18"/><polygon class="cls-3" points="83.08 262.15 83.08 267.13 82.36 267.69 82.36 237.72 73.95 234.02 93.23 219.09 93.23 254.87 83.08 262.15"/><polygon class="cls-3" points="57.1 296.06 57.1 256.84 82.36 237.72 82.36 267.69 82.36 286.99 65.4 299.86 57.1 296.06"/><polygon class="cls-5" points="72.21 199.3 93.23 208.36 93.23 219.09 72.21 210.03 72.21 204.12 72.21 199.3"/><polygon class="cls-4" points="72.21 199.3 77.1 195.5 91.01 184.77 91.01 173.76 80.95 169.43 67.04 180.16 64.29 176.61 82.22 162.62 97.75 169.31 103.78 164.66 125.37 173.97 121.27 177.12 125.37 178.88 129.22 180.55 110.08 195.36 93.23 208.36 72.21 199.3"/><polygon class="cls-3" points="72.17 937.25 59 945.92 59 927.03 72.17 918.36 72.17 932.29 72.17 937.25"/><polygon class="cls-4" points="45.68 920.31 32.51 913.66 45.68 904.97 72.17 918.36 59 927.03 45.68 920.31"/><polygon class="cls-5" points="72.21 199.3 72.21 204.12 67.04 201.9 67.04 191.17 67.04 180.16 77.1 184.49 77.1 195.5 72.21 199.3"/><polygon class="cls-4" points="38.96 212.88 25.12 207.16 64.29 176.61 67.04 180.16 67.04 191.17 38.96 212.88"/><polygon class="cls-4" points="90.64 734.24 2.06 694.38 2.06 597.07 59.3 623.1 87.44 635.89 87.44 635.91 91.45 637.72 85.19 642.75 42.57 622.1 16.38 640.13 16.38 660.13 85.35 693.52 111.52 675.52 111.52 670.97 120.81 664.3 143.36 648.1 170.52 660.96 185.26 667.94 107.16 725.69 107.16 718.57 103.5 716.93 90.64 726.43 90.64 734.24"/><polygon class="cls-5" points="59.3 623.1 2.06 597.07 2.06 391.95 59.3 418 59.3 623.1"/><polygon class="cls-5" points="59 945.92 32.51 932.54 32.51 914.14 32.51 913.66 45.68 920.31 59 927.03 59 945.92"/><polygon class="cls-5" points="90.64 837.23 51.91 863.86 51.91 773.22 90.64 790.95 90.64 837.23"/><polygon class="cls-5" points="57.1 296.06 12.44 275.69 12.44 271.77 12.44 264.98 12.44 261.18 12.44 237.19 57.1 256.84 57.1 296.06"/><polygon class="cls-4" points="51.91 773.22 56.01 769.65 56.01 768.12 90.64 783.81 90.64 790.95 51.91 773.22"/><polygon class="cls-5" points="56.01 769.65 51.91 773.22 51.91 863.86 50.03 865.15 50.03 772.01 56.01 766.8 56.01 768.12 56.01 769.65"/><polygon class="cls-4" points="51.08 220.65 51.08 214.25 67.04 201.9 72.21 204.12 72.21 210.03 93.23 219.09 73.95 234.02 48.3 222.71 51.08 220.65"/><polygon class="cls-5" points="48.99 990.99 2.06 967.68 2.06 937.76 48.99 961.07 48.99 990.99"/><polygon class="cls-4" points="57.1 256.84 12.44 237.19 25.12 227.6 26.51 226.53 37.73 218.05 42.39 220.11 48.3 222.71 73.95 234.02 82.36 237.72 57.1 256.84"/><polygon class="cls-4" points="50.03 772.01 30.8 748.91 37.08 743.7 56.01 766.8 50.03 772.01"/><polygon class="cls-5" points="10.91 868.26 10.91 755.65 30.8 748.91 50.03 772.01 50.03 865.15 31.66 877.81 10.91 868.26"/><polygon class="cls-5" points="26.51 226.53 26.51 213.44 32.63 215.92 42.39 219.86 42.39 220.11 37.73 218.05 26.51 226.53"/><polygon class="cls-5" points="32.63 215.92 26.51 213.44 28.39 212 38.96 216.36 45.77 211.1 51.08 213.39 42.39 219.86 32.63 215.92"/><polygon class="cls-5" points="26.51 213.44 26.51 226.53 25.12 227.6 25.12 207.16 38.96 212.88 38.96 216.36 28.39 212 26.51 213.44"/><polygon class="cls-3" points="18.91 366.11 2.06 378.16 2.06 365.79 18.91 353.74 18.91 366.11"/><polygon class="cls-4" points="48.99 990.99 2.06 1022.69 2.06 967.68 48.99 990.99"/><polygon class="cls-4" points="16.8 888.03 2.06 898.15 2.06 881.38 16.8 888.03"/><polygon class="cls-5" points="16.8 888.03 2.06 881.38 2.06 869.63 27.11 880.91 16.8 888.03"/><polygon class="cls-5" points="10.91 868.26 2.06 864.18 2.06 750.41 11.84 754.89 10.91 755.65 10.91 868.26"/><polygon class="cls-4" points="59.3 418 2.06 391.95 2.06 378.16 18.91 366.11 87.44 397.58 59.3 418"/><polygon class="cls-4" points="2.06 937.76 2.06 900.19 2.92 900.59 11.47 904.5 32.51 914.14 32.51 932.54 59 945.92 72.17 937.25 72.17 932.29 83.27 937.39 48.99 961.07 2.06 937.76"/><polygon class="cls-3" points="499.16 517.39 505.9 512.58 505.9 579.46 499.16 584.25 499.16 517.39"/><polygon class="cls-4" points="465.95 502.36 443.58 492.23 450.42 487.2 505.9 512.58 499.16 517.39 499.16 511.51 470.86 498.69 465.95 502.36"/><polygon class="cls-5" points="448.73 515.12 443.58 513.34 443.58 492.23 465.95 502.36 448.73 515.12"/><polygon class="cls-4" points="393.99 469.77 386.95 466.57 390.17 464.21 393.99 461.38 450.42 487.2 443.58 492.23 393.99 469.77"/><polygon class="cls-5" points="280.34 410.63 348.04 441.96 383.89 458.56 378.16 462.8 280.34 417.54 280.34 410.63"/><polygon class="cls-3" points="304.05 702.68 321.62 690.7 321.62 773.22 304.05 765.46 304.05 702.68"/><polygon class="cls-3" points="280.34 410.63 254.64 427.49 254.64 435.4 280.34 417.54 280.34 410.63"/><polygon class="cls-3" points="126.41 537.65 126.41 568.9 151.95 580.47 151.95 576.28 130.28 566.4 130.28 539.54 126.41 537.65"/><polyline class="cls-1" points="126.41 568.78 152 580.6 152 576.41 130.28 566.28 126.41 568.9"/><polyline class="cls-6" points="130.28 566.4 152 576.47 151.91 549.32 130.28 539.54"/><polygon class="cls-3" points="126.41 587.65 126.41 618.9 151.95 630.47 151.95 626.28 130.28 616.4 130.28 589.54 126.41 587.65"/><polyline class="cls-1" points="126.41 618.78 152 630.6 152 626.41 130.28 616.28 126.41 618.9"/><polyline class="cls-6" points="130.28 616.4 152 626.47 151.91 599.32 130.28 589.54"/></svg>